<svg width="794" height="69" viewBox="0 0 794 69" fill="none" xmlns="http://www.w3.org/2000/svg">
<path d="M0.985 67V2.115H42.88V13.135H14.095V32.705H37.655V43.725H14.095V67H0.985ZM50.8043 67V2.115H63.9143V67H50.8043ZM75.9459 67V2.115H93.0459L113.851 47.715H115.561V2.115H128.671V67H111.761L90.7659 20.64H89.0559V67H75.9459ZM135.764 67L152.294 2.115H175.189L191.624 67H178.514L174.904 53.89H152.199L148.779 67H135.764ZM154.289 43.345H173.004L165.689 12.755H161.699L154.289 43.345ZM198.778 67V2.115H215.878L236.683 47.715H238.393V2.115H251.503V67H234.593L213.598 20.64H211.888V67H198.778ZM286.811 68.045C281.744 68.045 277.564 67.4117 274.271 66.145C271.041 64.815 268.476 62.7883 266.576 60.065C264.676 57.3417 263.346 53.89 262.586 49.71C261.889 45.4667 261.541 40.4317 261.541 34.605C261.541 28.715 261.889 23.68 262.586 19.5C263.346 15.2567 264.676 11.7733 266.576 9.05C268.476 6.32666 271.073 4.3 274.366 2.97C277.723 1.64 281.998 0.974995 287.191 0.974995C289.281 0.974995 291.466 1.10166 293.746 1.355C296.026 1.60833 298.211 1.925 300.301 2.30499C302.454 2.62166 304.291 2.97 305.811 3.35L305.431 13.8C304.164 13.5467 302.581 13.325 300.681 13.135C298.781 12.8817 296.849 12.6917 294.886 12.565C292.923 12.4383 291.086 12.375 289.376 12.375C286.336 12.375 283.866 12.755 281.966 13.515C280.066 14.275 278.578 15.5417 277.501 17.315C276.488 19.0883 275.791 21.4 275.411 24.25C275.031 27.0367 274.841 30.4883 274.841 34.605C274.841 38.6583 275.031 42.11 275.411 44.96C275.791 47.7467 276.488 50.0267 277.501 51.8C278.514 53.51 279.971 54.7767 281.871 55.6C283.834 56.36 286.368 56.74 289.471 56.74C292.004 56.74 294.791 56.6133 297.831 56.36C300.934 56.0433 303.499 55.7583 305.526 55.505L305.811 65.86C304.291 66.1767 302.486 66.525 300.396 66.905C298.306 67.2217 296.089 67.475 293.746 67.665C291.403 67.9183 289.091 68.045 286.811 68.045ZM314.745 67V2.115H327.855V67H314.745ZM335.041 67L351.571 2.115H374.466L390.901 67H377.791L374.181 53.89H351.476L348.056 67H335.041ZM353.566 43.345H372.281L364.966 12.755H360.976L353.566 43.345ZM398.055 67V2.115H411.165V55.885H436.815V67H398.055ZM485.569 68.045C483.162 68.045 480.534 67.8867 477.684 67.57C474.834 67.3167 472.047 67 469.324 66.62C466.664 66.1767 464.384 65.7967 462.484 65.48L463.339 55.125C465.302 55.3783 467.582 55.6633 470.179 55.98C472.776 56.2333 475.341 56.455 477.874 56.645C480.471 56.835 482.719 56.93 484.619 56.93C488.229 56.93 490.857 56.2333 492.504 54.84C494.151 53.3833 494.974 51.135 494.974 48.095C494.974 46.4483 494.626 45.15 493.929 44.2C493.296 43.1867 492.124 42.395 490.414 41.825C488.704 41.1917 486.329 40.59 483.289 40.02C478.222 39.07 474.106 37.8983 470.939 36.505C467.836 35.1117 465.556 33.1483 464.099 30.615C462.706 28.0817 462.009 24.6933 462.009 20.45C462.009 15.51 462.927 11.6467 464.764 8.86C466.601 6.01 469.229 3.98333 472.649 2.77999C476.069 1.57666 480.091 0.974995 484.714 0.974995C486.804 0.974995 489.179 1.10166 491.839 1.355C494.562 1.545 497.222 1.79833 499.819 2.115C502.479 2.43166 504.727 2.78 506.564 3.16L505.994 13.61C504.094 13.3567 501.877 13.135 499.344 12.945C496.874 12.6917 494.404 12.47 491.934 12.28C489.527 12.09 487.469 11.995 485.759 11.995C482.149 11.995 479.489 12.565 477.779 13.705C476.069 14.845 475.214 16.6817 475.214 19.215C475.214 21.115 475.594 22.5717 476.354 23.585C477.114 24.5983 478.381 25.4217 480.154 26.055C481.991 26.6883 484.492 27.3533 487.659 28.05C491.396 28.8733 494.562 29.76 497.159 30.71C499.819 31.66 501.941 32.8 503.524 34.13C505.171 35.46 506.374 37.17 507.134 39.26C507.894 41.35 508.274 43.9783 508.274 47.145C508.274 52.2117 507.356 56.2967 505.519 59.4C503.746 62.44 501.149 64.6567 497.729 66.05C494.372 67.38 490.319 68.045 485.569 68.045ZM531.327 67V42.395L511.472 2.115H525.722L537.882 28.145L550.232 2.115H564.387L544.437 42.395V67H531.327ZM591.331 68.045C588.924 68.045 586.296 67.8867 583.446 67.57C580.596 67.3167 577.809 67 575.086 66.62C572.426 66.1767 570.146 65.7967 568.246 65.48L569.101 55.125C571.064 55.3783 573.344 55.6633 575.941 55.98C578.537 56.2333 581.102 56.455 583.636 56.645C586.232 56.835 588.481 56.93 590.381 56.93C593.991 56.93 596.619 56.2333 598.266 54.84C599.912 53.3833 600.736 51.135 600.736 48.095C600.736 46.4483 600.387 45.15 599.691 44.2C599.057 43.1867 597.886 42.395 596.176 41.825C594.466 41.1917 592.091 40.59 589.051 40.02C583.984 39.07 579.867 37.8983 576.701 36.505C573.597 35.1117 571.317 33.1483 569.861 30.615C568.467 28.0817 567.771 24.6933 567.771 20.45C567.771 15.51 568.689 11.6467 570.526 8.86C572.362 6.01 574.991 3.98333 578.411 2.77999C581.831 1.57666 585.852 0.974995 590.476 0.974995C592.566 0.974995 594.941 1.10166 597.601 1.355C600.324 1.545 602.984 1.79833 605.581 2.115C608.241 2.43166 610.489 2.78 612.326 3.16L611.756 13.61C609.856 13.3567 607.639 13.135 605.106 12.945C602.636 12.6917 600.166 12.47 597.696 12.28C595.289 12.09 593.231 11.995 591.521 11.995C587.911 11.995 585.251 12.565 583.541 13.705C581.831 14.845 580.976 16.6817 580.976 19.215C580.976 21.115 581.356 22.5717 582.116 23.585C582.876 24.5983 584.142 25.4217 585.916 26.055C587.752 26.6883 590.254 27.3533 593.421 28.05C597.157 28.8733 600.324 29.76 602.921 30.71C605.581 31.66 607.702 32.8 609.286 34.13C610.932 35.46 612.136 37.17 612.896 39.26C613.656 41.35 614.036 43.9783 614.036 47.145C614.036 52.2117 613.117 56.2967 611.281 59.4C609.507 62.44 606.911 64.6567 603.491 66.05C600.134 67.38 596.081 68.045 591.331 68.045ZM635.664 67V13.23H618.184V2.115H665.684V13.23H648.774V67H635.664ZM672.85 67V2.115H715.98V13.04H685.96V28.81H710.28V39.545H685.96V56.075H715.98V67H672.85ZM725.174 67V2.115H746.264L759.374 45.435L772.199 2.115H793.574V67H780.464V18.93H779.134L765.549 65.29H753.199L739.614 18.93H738.284V67H725.174Z" fill="white"/>
</svg>
