<svg width="388" height="69" viewBox="0 0 388 69" fill="none" xmlns="http://www.w3.org/2000/svg">
<path d="M23.98 68.045C21.5733 68.045 18.945 67.8867 16.095 67.57C13.245 67.3167 10.4583 67 7.735 66.62C5.075 66.1767 2.795 65.7967 0.895 65.48L1.75 55.125C3.71333 55.3783 5.99333 55.6633 8.59 55.98C11.1867 56.2333 13.7517 56.455 16.285 56.645C18.8817 56.835 21.13 56.93 23.03 56.93C26.64 56.93 29.2683 56.2333 30.915 54.84C32.5617 53.3833 33.385 51.135 33.385 48.095C33.385 46.4483 33.0367 45.15 32.34 44.2C31.7067 43.1867 30.535 42.395 28.825 41.825C27.115 41.1917 24.74 40.59 21.7 40.02C16.6333 39.07 12.5167 37.8983 9.35 36.505C6.24667 35.1117 3.96667 33.1483 2.51 30.615C1.11667 28.0817 0.42 24.6933 0.42 20.45C0.42 15.51 1.33833 11.6467 3.175 8.86C5.01167 6.01 7.64 3.98333 11.06 2.77999C14.48 1.57666 18.5017 0.974995 23.125 0.974995C25.215 0.974995 27.59 1.10166 30.25 1.355C32.9733 1.545 35.6333 1.79833 38.23 2.115C40.89 2.43166 43.1383 2.78 44.975 3.16L44.405 13.61C42.505 13.3567 40.2883 13.135 37.755 12.945C35.285 12.6917 32.815 12.47 30.345 12.28C27.9383 12.09 25.88 11.995 24.17 11.995C20.56 11.995 17.9 12.565 16.19 13.705C14.48 14.845 13.625 16.6817 13.625 19.215C13.625 21.115 14.005 22.5717 14.765 23.585C15.525 24.5983 16.7917 25.4217 18.565 26.055C20.4017 26.6883 22.9033 27.3533 26.07 28.05C29.8067 28.8733 32.9733 29.76 35.57 30.71C38.23 31.66 40.3517 32.8 41.935 34.13C43.5817 35.46 44.785 37.17 45.545 39.26C46.305 41.35 46.685 43.9783 46.685 47.145C46.685 52.2117 45.7667 56.2967 43.93 59.4C42.1567 62.44 39.56 64.6567 36.14 66.05C32.7833 67.38 28.73 68.045 23.98 68.045ZM69.7381 67V42.395L49.8831 2.115H64.1331L76.2931 28.145L88.6431 2.115H102.798L82.8481 42.395V67H69.7381ZM129.742 68.045C127.335 68.045 124.707 67.8867 121.857 67.57C119.007 67.3167 116.22 67 113.497 66.62C110.837 66.1767 108.557 65.7967 106.657 65.48L107.512 55.125C109.475 55.3783 111.755 55.6633 114.352 55.98C116.948 56.2333 119.513 56.455 122.047 56.645C124.643 56.835 126.892 56.93 128.792 56.93C132.402 56.93 135.03 56.2333 136.677 54.84C138.323 53.3833 139.147 51.135 139.147 48.095C139.147 46.4483 138.798 45.15 138.102 44.2C137.468 43.1867 136.297 42.395 134.587 41.825C132.877 41.1917 130.502 40.59 127.462 40.02C122.395 39.07 118.278 37.8983 115.112 36.505C112.008 35.1117 109.728 33.1483 108.272 30.615C106.878 28.0817 106.182 24.6933 106.182 20.45C106.182 15.51 107.1 11.6467 108.937 8.86C110.773 6.01 113.402 3.98333 116.822 2.77999C120.242 1.57666 124.263 0.974995 128.887 0.974995C130.977 0.974995 133.352 1.10166 136.012 1.355C138.735 1.545 141.395 1.79833 143.992 2.115C146.652 2.43166 148.9 2.78 150.737 3.16L150.167 13.61C148.267 13.3567 146.05 13.135 143.517 12.945C141.047 12.6917 138.577 12.47 136.107 12.28C133.7 12.09 131.642 11.995 129.932 11.995C126.322 11.995 123.662 12.565 121.952 13.705C120.242 14.845 119.387 16.6817 119.387 19.215C119.387 21.115 119.767 22.5717 120.527 23.585C121.287 24.5983 122.553 25.4217 124.327 26.055C126.163 26.6883 128.665 27.3533 131.832 28.05C135.568 28.8733 138.735 29.76 141.332 30.71C143.992 31.66 146.113 32.8 147.697 34.13C149.343 35.46 150.547 37.17 151.307 39.26C152.067 41.35 152.447 43.9783 152.447 47.145C152.447 52.2117 151.528 56.2967 149.692 59.4C147.918 62.44 145.322 64.6567 141.902 66.05C138.545 67.38 134.492 68.045 129.742 68.045ZM174.075 67V13.23H156.595V2.115H204.095V13.23H187.185V67H174.075ZM211.261 67V2.115H254.391V13.04H224.371V28.81H248.691V39.545H224.371V56.075H254.391V67H211.261ZM263.586 67V2.115H284.676L297.786 45.435L310.611 2.115H331.986V67H318.876V18.93H317.546L303.961 65.29H291.611L278.026 18.93H276.696V67H263.586ZM364.922 68.045C362.516 68.045 359.887 67.8867 357.037 67.57C354.187 67.3167 351.401 67 348.677 66.62C346.017 66.1767 343.737 65.7967 341.837 65.48L342.692 55.125C344.656 55.3783 346.936 55.6633 349.532 55.98C352.129 56.2333 354.694 56.455 357.227 56.645C359.824 56.835 362.072 56.93 363.972 56.93C367.582 56.93 370.211 56.2333 371.857 54.84C373.504 53.3833 374.327 51.135 374.327 48.095C374.327 46.4483 373.979 45.15 373.282 44.2C372.649 43.1867 371.477 42.395 369.767 41.825C368.057 41.1917 365.682 40.59 362.642 40.02C357.576 39.07 353.459 37.8983 350.292 36.505C347.189 35.1117 344.909 33.1483 343.452 30.615C342.059 28.0817 341.362 24.6933 341.362 20.45C341.362 15.51 342.281 11.6467 344.117 8.86C345.954 6.01 348.582 3.98333 352.002 2.77999C355.422 1.57666 359.444 0.974995 364.067 0.974995C366.157 0.974995 368.532 1.10166 371.192 1.355C373.916 1.545 376.576 1.79833 379.172 2.115C381.832 2.43166 384.081 2.78 385.917 3.16L385.347 13.61C383.447 13.3567 381.231 13.135 378.697 12.945C376.227 12.6917 373.757 12.47 371.287 12.28C368.881 12.09 366.822 11.995 365.112 11.995C361.502 11.995 358.842 12.565 357.132 13.705C355.422 14.845 354.567 16.6817 354.567 19.215C354.567 21.115 354.947 22.5717 355.707 23.585C356.467 24.5983 357.734 25.4217 359.507 26.055C361.344 26.6883 363.846 27.3533 367.012 28.05C370.749 28.8733 373.916 29.76 376.512 30.71C379.172 31.66 381.294 32.8 382.877 34.13C384.524 35.46 385.727 37.17 386.487 39.26C387.247 41.35 387.627 43.9783 387.627 47.145C387.627 52.2117 386.709 56.2967 384.872 59.4C383.099 62.44 380.502 64.6567 377.082 66.05C373.726 67.38 369.672 68.045 364.922 68.045Z" fill="white"/>
</svg>
