<svg width="77" height="72" viewBox="0 0 77 72" fill="none" xmlns="http://www.w3.org/2000/svg">
<g clip-path="url(#clip0_1148_3096)">
<path d="M5.13131 59.4799H7.69696V57.1015H5.13131C3.7141 57.1015 2.56565 56.0369 2.56565 54.7231V7.15433C2.56565 5.84055 3.7141 4.7759 5.13131 4.7759H61.5757C62.9929 4.7759 64.1413 5.84055 64.1413 7.15433V9.53277H66.707V7.15433C66.707 4.52735 64.4095 2.39746 61.5757 2.39746H5.13131C2.29754 2.39746 0 4.52735 0 7.15433V54.7231C0 57.35 2.29754 59.4799 5.13131 59.4799Z" fill="white"/>
<path d="M5.13135 7.1543H7.697V9.53273H5.13135V7.1543Z" fill="white"/>
<path d="M10.2627 7.1543H12.8283V9.53273H10.2627V7.1543Z" fill="white"/>
<path d="M15.394 7.1543H17.9597V9.53273H15.394V7.1543Z" fill="white"/>
<path d="M10.2627 64.2367C10.2627 66.8637 12.5602 68.9936 15.394 68.9936H71.8384C74.6722 68.9936 76.9697 66.8637 76.9697 64.2367V16.668C76.9697 14.041 74.6722 11.9111 71.8384 11.9111H15.394C12.5602 11.9111 10.2627 14.041 10.2627 16.668V64.2367ZM12.8283 16.668C12.8283 15.3542 13.9768 14.2896 15.394 14.2896H71.8384C73.2556 14.2896 74.404 15.3542 74.404 16.668V64.2367C74.404 65.5505 73.2556 66.6152 71.8384 66.6152H15.394C13.9768 66.6152 12.8283 65.5505 12.8283 64.2367V16.668Z" fill="white"/>
<path d="M15.394 16.668H17.9597V19.0464H15.394V16.668Z" fill="white"/>
<path d="M20.5254 16.668H23.091V19.0464H20.5254V16.668Z" fill="white"/>
<path d="M25.6567 16.668H28.2224V19.0464H25.6567V16.668Z" fill="white"/>
<path d="M15.394 21.4248H71.8384V23.8032H15.394V21.4248Z" fill="white"/>
<path d="M15.394 27.3711H25.6567V29.7495H15.394V27.3711Z" fill="white"/>
<path d="M15.394 32.1279H23.091V34.5064H15.394V32.1279Z" fill="white"/>
<path d="M43.616 36.8848C38.6563 36.8848 34.6362 40.6115 34.6362 45.2093C34.6362 49.8071 38.6563 53.5338 43.616 53.5338C48.5757 53.5338 52.5958 49.8071 52.5958 45.2093C52.59 40.6142 48.5729 36.8901 43.616 36.8848ZM43.616 51.1554C40.0738 51.1554 37.2019 48.493 37.2019 45.2093C37.2019 41.9256 40.0738 39.2632 43.616 39.2632C47.1582 39.2632 50.0302 41.9256 50.0302 45.2093C50.0257 48.4915 47.1566 51.1512 43.616 51.1554Z" fill="white"/>
<path d="M64.1413 41.6415C64.1413 40.9844 63.5672 40.4523 62.8584 40.4523H59.4679C59.1963 39.6709 58.8576 38.9107 58.4532 38.1809L60.8508 35.9597C61.3511 35.495 61.3511 34.7425 60.8508 34.2778L55.4078 29.232C54.9065 28.7682 54.0948 28.7682 53.5935 29.232L51.1975 31.4534C50.4089 31.08 49.5895 30.7661 48.7473 30.514V27.3709C48.7473 26.7138 48.1733 26.1816 47.4645 26.1816H39.7676C39.0588 26.1816 38.4847 26.7138 38.4847 27.3709V30.514C37.6426 30.7661 36.8232 31.08 36.0345 31.4534L33.6385 29.232C33.1373 28.7682 32.3256 28.7682 31.8243 29.232L26.3813 34.2778C25.881 34.7425 25.881 35.495 26.3813 35.9597L28.7776 38.1809C28.6705 38.3756 28.5672 38.5709 28.4697 38.7683C28.199 39.3166 27.9636 39.8785 27.7642 40.4523H24.3736C23.6649 40.4523 23.0908 40.9844 23.0908 41.6415V48.7768C23.0908 49.4338 23.6649 49.966 24.3736 49.966H27.7642C28.0358 50.7473 28.3745 51.5075 28.7789 52.2374L26.3813 54.4586C25.881 54.9233 25.881 55.6758 26.3813 56.1404L31.8243 61.1863C32.3256 61.6501 33.1373 61.6501 33.6385 61.1863L36.0345 58.9648C36.8232 59.3382 37.6426 59.6522 38.4847 59.9043V63.0474C38.4847 63.7045 39.0588 64.2366 39.7676 64.2366H47.4645C48.1733 64.2366 48.7473 63.7045 48.7473 63.0474V59.9043C49.5895 59.6522 50.4089 59.3382 51.1975 58.9648L53.5935 61.1863C54.0948 61.6501 54.9065 61.6501 55.4078 61.1863L60.8508 56.1404C61.3511 55.6758 61.3511 54.9233 60.8508 54.4586L58.4532 52.2374C58.8576 51.5075 59.1963 50.7473 59.4679 49.966H62.8584C63.5672 49.966 64.1413 49.4338 64.1413 48.7768V41.6415ZM61.5756 47.5876H58.5045C57.9196 47.5876 57.409 47.9547 57.2627 48.4795C56.935 49.6598 56.4299 50.7925 55.7618 51.8426C55.4645 52.3094 55.5463 52.904 55.9594 53.2875L58.1283 55.2994L54.5005 58.664L52.3303 56.6518C51.9162 56.2683 51.2748 56.1928 50.771 56.4687C49.6383 57.0879 48.417 57.5565 47.1438 57.86C46.5778 57.9956 46.1817 58.4689 46.1817 59.0112V61.8582H41.0504V59.0112C41.0504 58.4689 40.6543 57.9956 40.0883 57.86C38.8151 57.5565 37.5938 57.0879 36.4611 56.4687C35.9572 56.1928 35.3158 56.2683 34.9018 56.6518L32.7316 58.664L29.1037 55.2994L31.2727 53.2875C31.6858 52.904 31.7675 52.3094 31.4702 51.8426C30.8022 50.7925 30.2971 49.6598 29.9693 48.4795C29.8231 47.9547 29.3125 47.5876 28.7276 47.5876H25.6565V42.8307H28.7276C29.3125 42.8307 29.8231 42.4635 29.9693 41.9388C30.1765 41.1902 30.4558 40.4612 30.8035 39.7592C31.0039 39.3522 31.2265 38.9553 31.4702 38.57C31.7666 38.103 31.6854 37.5092 31.2727 37.126L29.1037 35.1142L32.7316 31.7496L34.9018 33.7623C35.3158 34.1458 35.9572 34.2208 36.4611 33.9446C37.5938 33.3259 38.8151 32.8567 40.0883 32.5532C40.6543 32.4179 41.0504 31.944 41.0504 31.4026V28.5601H46.1817V31.4071C46.1817 31.9494 46.5778 32.4227 47.1438 32.5582C48.417 32.8618 49.6383 33.3303 50.771 33.9496C51.2748 34.2255 51.9162 34.15 52.3303 33.7665L54.5005 31.7543L58.1283 35.1189L55.9594 37.1308C55.5463 37.5143 55.4645 38.1089 55.7618 38.5757C56.4299 39.6258 56.935 40.7585 57.2627 41.9388C57.409 42.4635 57.9196 42.8307 58.5045 42.8307H61.5756V47.5876Z" fill="white"/>
<path d="M64.1411 61.8584H71.8381V64.2368H64.1411V61.8584Z" fill="white"/>
</g>
<defs>
<clipPath id="clip0_1148_3096">
<rect width="76.9696" height="71.3531" fill="white"/>
</clipPath>
</defs>
</svg>
