<svg width="15" height="15" viewBox="0 0 15 15" fill="none" xmlns="http://www.w3.org/2000/svg">
<path fill-rule="evenodd" clip-rule="evenodd" d="M7.5 15C3.36448 15 0 11.6355 0 7.5C0 3.36448 3.36448 0 7.5 0C11.6355 0 15 3.36448 15 7.5C15 11.6355 11.6355 15 7.5 15ZM11.3894 10.1347C11.4819 10.1347 11.5571 10.0595 11.5571 9.96697V5.25847L7.7412 8.2887C7.6706 8.3448 7.58525 8.37284 7.49997 8.37284C7.41469 8.37284 7.32937 8.34478 7.25874 8.2887L3.44285 5.25847V9.96697C3.44285 10.0595 3.51812 10.1347 3.61058 10.1347H11.3894ZM10.8046 4.8653L7.5 7.48957L4.19534 4.8653H10.8046ZM12.333 5.03303V9.96703C12.333 10.4873 11.9097 10.9106 11.3894 10.9106H3.61058C3.09026 10.9106 2.66701 10.4873 2.66701 9.96703V5.03303C2.66701 4.51274 3.09029 4.08946 3.61058 4.08946H11.3894C11.9097 4.08943 12.333 4.51274 12.333 5.03303Z" fill="white"/>
</svg>
