<svg width="75" height="75" viewBox="0 0 75 75" fill="none" xmlns="http://www.w3.org/2000/svg">
<g clip-path="url(#clip0_1170_9539)">
<path d="M66.4409 55.8949C64.1017 55.8949 62.1394 57.5328 61.6367 59.7214H37.857V58.4618C37.857 57.26 36.999 56.213 35.8167 55.9723C34.2848 55.6604 32.787 55.1564 31.3653 54.4741C26.7775 52.2729 23.3216 48.417 21.6339 43.6164C19.9463 38.816 20.2292 33.6456 22.4304 29.0578C25.0325 23.6344 29.9102 19.8335 35.813 18.6295C36.9974 18.3878 37.857 17.3403 37.857 16.1385V14.6429H61.6367C62.1394 16.8316 64.1017 18.4694 66.4409 18.4694C69.1594 18.4694 71.3709 16.2579 71.3709 13.5394C71.3709 10.8209 69.1594 8.60928 66.4409 8.60928C64.1017 8.60928 62.1394 10.2472 61.6367 12.4358H37.857V6.4517H48.3937C48.8964 8.64048 50.8587 10.2782 53.1979 10.2782C55.9163 10.2782 58.1279 8.06662 58.1279 5.34812C58.1279 2.62963 55.9163 0.418044 53.1979 0.418044C50.8587 0.418044 48.8964 2.05591 48.3937 4.24454H37.857V2.54193C37.857 1.80753 37.5396 1.10918 36.9862 0.625812C36.4349 0.144355 35.7025 -0.0754789 34.9794 0.0231079C31.8341 0.450416 28.7511 1.26824 25.8162 2.45364C24.9486 2.80399 24.2573 3.50734 23.9199 4.38315C23.5803 5.26454 23.6218 6.25733 24.0337 7.10694L26.02 11.2039C26.2932 11.7677 26.0884 12.4533 25.5532 12.7645C23.1083 14.1874 20.897 15.958 18.981 18.0271C18.5642 18.4774 17.8536 18.5261 17.3637 18.1387L13.797 15.318C13.0582 14.7336 12.0999 14.4795 11.1685 14.621C10.2331 14.763 9.3894 15.293 8.85394 16.0751C6.61837 19.3402 4.90899 22.9172 3.77363 26.7066C3.50156 27.6145 3.61927 28.6039 4.09646 29.4208C4.57159 30.2344 5.37132 30.8202 6.29024 31.0279L10.7258 32.0307C11.3352 32.1684 11.7433 32.752 11.6548 33.359C11.2484 36.1508 11.2596 38.9836 11.6884 41.7787C11.7821 42.3906 11.3775 42.9806 10.7671 43.1222L6.33232 44.1501C5.41488 44.3627 4.61868 44.9525 4.14782 45.7681C3.67489 46.5874 3.56218 47.5773 3.83852 48.4838C4.99434 52.2746 6.72358 55.8447 8.97842 59.0952C9.51859 59.874 10.3654 60.3989 11.3017 60.5353C12.2344 60.6709 13.1906 60.4111 13.926 59.8223L17.4994 56.9611C17.9868 56.5709 18.7006 56.6183 19.1248 57.0693C19.5328 57.503 20.0699 57.9936 20.7208 58.5273C21.192 58.9136 21.8874 58.8449 22.274 58.3736C22.6604 57.9021 22.5915 57.2068 22.1202 56.8204C21.5425 56.3469 21.0756 55.9218 20.7326 55.5574C19.5256 54.2738 17.4993 54.1336 16.1199 55.2383L12.5465 58.0996C12.2831 58.3106 11.954 58.3999 11.6198 58.3513C11.2817 58.302 10.9877 58.1196 10.7918 57.8374C8.6678 54.7753 7.03876 51.4119 5.94975 47.8404C5.84954 47.5118 5.88854 47.1678 6.05937 46.8719C6.228 46.5796 6.50198 46.3767 6.83055 46.3005L11.2653 45.2725C12.9936 44.872 14.1376 43.1904 13.8698 41.4444C13.4744 38.8657 13.464 36.2523 13.8389 33.6771C14.0921 31.937 12.9384 30.2682 11.2122 29.878L6.77685 28.8752C6.44754 28.8007 6.17238 28.5992 6.00198 28.3077C5.82968 28.0126 5.78907 27.6691 5.88765 27.3402C6.95754 23.7694 8.56833 20.3989 10.6749 17.3222C10.8688 17.0389 11.1618 16.8545 11.4995 16.8033C11.8327 16.7526 12.1626 16.84 12.4276 17.0495L15.9944 19.8701C17.3826 20.9677 19.4055 20.8171 20.6003 19.527C22.3677 17.6184 24.4076 15.9851 26.6633 14.6724C28.1901 13.7839 28.7798 11.8375 28.006 10.2411L26.0198 6.14403C25.8713 5.83796 25.8572 5.49438 25.9796 5.1767C26.0999 4.86446 26.3354 4.62432 26.6428 4.50013C29.4081 3.3833 32.3129 2.61285 35.2768 2.21012C35.3982 2.19408 35.4834 2.24352 35.5346 2.28825C35.5777 2.32592 35.65 2.40891 35.65 2.54178V16.1385C35.65 16.2985 35.5357 16.4334 35.3719 16.4668C28.7863 17.8099 23.3441 22.0512 20.4405 28.103C17.9843 33.2223 17.6686 38.9917 19.5518 44.3485C21.4349 49.7051 25.2913 54.0079 30.4106 56.4641C31.9958 57.2247 33.6666 57.7869 35.3764 58.135C35.5374 58.1679 35.6498 58.3022 35.6498 58.4618V72.4582C35.6498 72.591 35.5777 72.6739 35.5348 72.7116C35.4839 72.7562 35.3985 72.8064 35.2784 72.79C32.3941 72.4055 29.5514 71.6575 26.829 70.5665C26.5206 70.4429 26.2838 70.2031 26.1621 69.8911C26.0388 69.5746 26.0515 69.2319 26.1979 68.9259C26.2001 68.9213 26.2021 68.9168 26.2043 68.9122L28.4417 64.0657C29.0235 62.8054 28.5788 61.2928 27.407 60.547C26.6648 60.0748 25.9437 59.6004 25.2642 59.1369C24.7606 58.7934 24.074 58.9233 23.7307 59.427C23.3873 59.9305 23.5172 60.6171 24.0207 60.9605C24.7196 61.4371 25.4604 61.9244 26.2221 62.4091C26.466 62.5644 26.5587 62.8787 26.4379 63.1406L24.2035 67.9806C23.8001 68.8289 23.7644 69.817 24.1058 70.6928C24.4464 71.5667 25.1397 72.2674 26.008 72.6154C28.9005 73.7744 31.9215 74.5693 34.987 74.9779C35.0983 74.9928 35.2097 75.0002 35.3207 75.0002C35.9301 75.0002 36.524 74.7794 36.9889 74.3724C37.5406 73.8892 37.8572 73.1916 37.8572 72.4584V70.12H48.3939C48.8965 72.3086 50.8588 73.9464 53.198 73.9464C55.9165 73.9464 58.1281 71.7349 58.1281 69.0164C58.1281 66.2979 55.9165 64.0863 53.198 64.0863C50.8588 64.0863 48.8965 65.7242 48.3939 67.9128H37.8572V61.9287H61.6369C62.1395 64.1175 64.1019 65.7552 66.441 65.7552C69.1595 65.7552 71.3711 63.5436 71.3711 60.8251C71.3711 58.1066 69.1592 55.8949 66.4409 55.8949ZM66.4409 10.8163C67.9423 10.8163 69.1638 12.0378 69.1638 13.5392C69.1638 15.0407 67.9423 16.2621 66.4409 16.2621C64.9394 16.2621 63.7178 15.0407 63.7178 13.5392C63.7178 12.0378 64.9394 10.8163 66.4409 10.8163ZM53.1979 2.62521C54.6993 2.62521 55.9208 3.84666 55.9208 5.34812C55.9208 6.84958 54.6993 8.07103 53.1979 8.07103C51.6964 8.07103 50.4748 6.84958 50.4748 5.34812C50.4748 3.84666 51.6964 2.62521 53.1979 2.62521ZM53.1979 66.2932C54.6993 66.2932 55.9208 67.5146 55.9208 69.0161C55.9208 70.5175 54.6993 71.739 53.1979 71.739C51.6964 71.739 50.4748 70.5175 50.4748 69.0161C50.4748 67.5146 51.6964 66.2932 53.1979 66.2932ZM66.4409 63.548C64.9394 63.548 63.7178 62.3266 63.7178 60.8251C63.7178 59.3237 64.9394 58.1022 66.4409 58.1022C67.9423 58.1022 69.1638 59.3237 69.1638 60.8251C69.1638 62.3266 67.9423 63.548 66.4409 63.548Z" fill="white"/>
<path d="M38.7649 33.7121C39.3745 33.7121 39.8685 33.2179 39.8685 32.6085C39.8685 31.999 39.3745 31.5049 38.7649 31.5049H34.7686C34.159 31.5049 33.665 31.999 33.665 32.6085V42.0927C33.665 42.7021 34.159 43.1962 34.7686 43.1962H38.7649C39.3745 43.1962 39.8685 42.7021 39.8685 42.0927C39.8685 41.4832 39.3745 40.9891 38.7649 40.9891H35.8722V38.4541H38.4702C39.0798 38.4541 39.5738 37.96 39.5738 37.3505C39.5738 36.741 39.0798 36.2469 38.4702 36.2469H35.8722V33.7119H38.7649V33.7121Z" fill="white"/>
<path d="M51.0647 35.0521C51.0647 33.0719 49.3905 31.4609 47.3328 31.4609H44.7891C44.7886 31.4609 44.7881 31.4609 44.7877 31.4609C44.7872 31.4609 44.7866 31.4609 44.7862 31.4609C44.1766 31.4609 43.6826 31.955 43.6826 32.5645V42.1361C43.6826 42.7456 44.1766 43.2397 44.7862 43.2397C45.3958 43.2397 45.8898 42.7456 45.8898 42.1361V39.1806L49.1327 42.8652C49.3508 43.113 49.6555 43.2397 49.9616 43.2397C50.2205 43.2397 50.4805 43.1491 50.6902 42.9645C51.1477 42.562 51.1921 41.8645 50.7896 41.407L48.2585 38.5312C49.8699 38.1341 51.0647 36.725 51.0647 35.0521ZM47.3327 36.4362C47.0009 36.4362 46.4236 36.4387 45.9042 36.4412C45.9014 35.9331 45.8991 35.3729 45.8991 35.0523C45.8991 34.7804 45.8976 34.2003 45.8961 33.6683H47.3328C48.1593 33.6683 48.8575 34.302 48.8575 35.0523C48.8575 35.8024 48.1593 36.4362 47.3327 36.4362Z" fill="white"/>
<path d="M55.1797 42.1361C55.1797 42.7456 55.6737 43.2397 56.2833 43.2397C56.8929 43.2397 57.3869 42.7456 57.3869 42.1361V39.0761C57.9465 39.0732 58.587 39.0704 58.9484 39.0704C61.0753 39.0704 62.8059 37.3636 62.8059 35.2657C62.8059 33.1678 61.0753 31.4609 58.9484 31.4609H56.2833C55.99 31.4609 55.7088 31.5776 55.5016 31.7854C55.2946 31.9932 55.1788 32.2748 55.1797 32.5681V42.1361ZM58.9484 33.6681C59.843 33.6681 60.5987 34.3997 60.5987 35.2657C60.5987 36.1316 59.843 36.8632 58.9484 36.8632C58.5896 36.8632 57.9567 36.866 57.3992 36.8689C57.3963 36.2933 57.3917 34.2704 57.3901 33.6683H58.9484V33.6681Z" fill="white"/>
<path d="M45.9412 25.5225H37.79C31.1867 25.5225 25.8145 30.8946 25.8145 37.4978C25.8145 44.1011 31.1867 49.4733 37.79 49.4733H57.799C64.4022 49.4733 69.7745 44.1012 69.7745 37.4978C69.7745 30.8946 64.4022 25.5225 57.799 25.5225H50.3554C49.7457 25.5225 49.2518 26.0166 49.2518 26.626C49.2518 27.2355 49.7457 27.7296 50.3554 27.7296H57.799C63.1852 27.7296 67.5673 32.1116 67.5673 37.4978C67.5673 42.884 63.1853 47.2661 57.799 47.2661H37.79C32.4037 47.2661 28.0216 42.884 28.0216 37.4978C28.0216 32.1116 32.4036 27.7296 37.79 27.7296H45.9412C46.5508 27.7296 47.0448 27.2355 47.0448 26.626C47.0448 26.0166 46.5506 25.5225 45.9412 25.5225Z" fill="white"/>
</g>
<defs>
<clipPath id="clip0_1170_9539">
<rect width="75" height="75" fill="white"/>
</clipPath>
</defs>
</svg>
