<svg width="76" height="76" viewBox="0 0 76 76" fill="none" xmlns="http://www.w3.org/2000/svg">
<g clip-path="url(#clip0_1148_3308)">
<path d="M60.0475 50.0216C58.7478 49.6734 57.3925 49.8498 56.2329 50.5194L43.7633 57.7184C43.6591 57.0826 43.4415 56.4628 43.111 55.885C42.3875 54.6202 41.2205 53.7145 39.8246 53.3345L25.4522 49.4227C23.4619 48.8808 21.3223 49.4271 19.2649 51.0025L15.6614 53.762L15.5785 53.4523C15.2899 52.3756 14.1792 51.7346 13.1031 52.0229L9.68355 52.9393C9.16295 53.0788 8.7273 53.4133 8.45689 53.8816C8.18663 54.3498 8.11456 54.8943 8.25401 55.415L13.2119 73.9178C13.4536 74.8198 14.2725 75.4163 15.1648 75.4162C15.3376 75.4162 15.513 75.3939 15.6874 75.3472L19.1073 74.4308C19.6278 74.2913 20.0631 73.9567 20.3336 73.4886C20.604 73.0204 20.6759 72.4756 20.5364 71.955L20.3816 71.3773C22.3271 69.9536 24.1247 69.5562 26.2922 70.0531L34.5245 71.9404C35.2536 72.1075 35.9639 72.1909 36.6544 72.1909C38.0875 72.1909 39.4336 71.8314 40.6747 71.1149L61.2616 59.2293C63.6625 57.8433 64.488 54.7617 63.102 52.3603C62.4327 51.2007 61.3479 50.3701 60.0475 50.0216ZM15.3923 72.9999L10.6013 55.1199L13.398 54.3705L18.189 72.2505L15.3923 72.9999ZM60.0897 57.1997L39.5028 69.0853C38.1748 69.852 36.7171 70.0387 35.0483 69.656L26.8161 67.7688C24.2331 67.1766 21.9966 67.5483 19.7387 68.9779L16.318 56.2116L20.6901 52.8634C22.1653 51.7334 23.5605 51.3365 24.8369 51.6842L39.2092 55.5961C40.0007 55.8116 40.664 56.3275 41.0766 57.0488C41.4893 57.7702 41.598 58.6033 41.3825 59.3949C41.1666 60.1879 40.6511 60.8517 39.9307 61.2637C39.2106 61.6758 38.3773 61.7839 37.5838 61.568L29.9065 59.4784C29.2824 59.3084 28.638 59.6769 28.4681 60.3013C28.2981 60.9258 28.6665 61.5699 29.2911 61.7398L36.9683 63.8294C37.4403 63.9577 37.9196 64.0214 38.3965 64.0213C39.3321 64.0213 40.2576 63.7768 41.0946 63.298C42.1725 62.6813 42.9882 61.7405 43.4413 60.6105L57.4051 52.5489C58.0224 52.1925 58.7454 52.0986 59.4411 52.2853C60.1367 52.4716 60.7161 52.9143 61.0725 53.5317C61.8122 54.8143 61.3716 56.4596 60.0897 57.1997ZM67.0161 21.1033H63.8564C63.3279 18.9483 62.4802 16.9036 61.3279 15.0034L63.5634 12.768C64.0211 12.3104 64.0211 11.5685 63.5634 11.1108L57.7864 5.33364C57.5665 5.11392 57.2686 4.99043 56.9577 4.99043C56.6469 4.99043 56.3489 5.11392 56.1291 5.33364L53.8936 7.56899C51.9925 6.41631 49.9477 5.56875 47.7935 5.04038V1.88086C47.7935 1.23369 47.2688 0.708984 46.6216 0.708984H38.4518C37.8046 0.708984 37.2799 1.23369 37.2799 1.88086V5.04038C35.1248 5.56904 33.0799 6.4166 31.1797 7.5687L28.9443 5.33335C28.4864 4.87559 27.7446 4.87588 27.287 5.33335L21.51 11.1104C21.2902 11.3301 21.1668 11.6282 21.1668 11.9391C21.1668 12.2499 21.2902 12.548 21.51 12.7677L23.7455 15.0031C22.5929 16.9043 21.7452 18.9491 21.2167 21.1031H18.0575C17.4103 21.1031 16.8856 21.6278 16.8856 22.275V30.445C16.8856 31.0922 17.4103 31.6169 18.0575 31.6169H21.2169C21.7454 33.7718 22.5931 35.8167 23.7455 37.7172L21.5101 39.9524C21.0525 40.4101 21.0525 41.152 21.5101 41.6096L27.2872 47.3867C27.507 47.6064 27.805 47.7299 28.1158 47.7299C28.4267 47.7299 28.7246 47.6064 28.9443 47.3867L31.1798 45.1513C33.0811 46.304 35.1257 47.1516 37.28 47.6799V50.8392C37.28 51.4863 37.8047 52.011 38.4519 52.011H46.6218C47.269 52.011 47.7937 51.4863 47.7937 50.8392V47.6798C49.9486 47.1513 51.9934 46.3036 53.8939 45.1513L56.1291 47.3865C56.5867 47.8443 57.3286 47.8443 57.7862 47.3865L63.5634 41.6095C63.7832 41.3897 63.9066 41.0917 63.9066 40.7808C63.9066 40.47 63.7832 40.172 63.5634 39.9521L61.3279 37.7167C62.4806 35.8154 63.3282 33.7707 63.8565 31.6166H67.0161C67.6632 31.6166 68.1879 31.0919 68.1879 30.4447V22.2747C68.1879 21.6278 67.6632 21.1033 67.0161 21.1033ZM65.8442 29.2733H62.9167C62.3579 29.2733 61.8767 29.6679 61.7674 30.2161C61.2663 32.7306 60.288 35.0906 58.86 37.2308C58.5499 37.6956 58.6109 38.3147 59.006 38.7098L61.0774 40.7812L56.9576 44.901L54.8864 42.8298C54.4914 42.4348 53.8722 42.3732 53.4071 42.6838C51.2683 44.1114 48.9083 45.0895 46.3924 45.5912C45.8444 45.7005 45.4496 46.1817 45.4496 46.7405V49.6677H39.6235V46.7404C39.6235 46.1815 39.2289 45.7003 38.6806 45.5911C36.1659 45.0898 33.8059 44.1116 31.6659 42.6836C31.2009 42.3734 30.582 42.4346 30.1867 42.8298L28.1154 44.9011L23.9957 40.7812L26.0669 38.7101C26.462 38.3149 26.5231 37.6957 26.213 37.2309C24.7854 35.0921 23.8071 32.7321 23.3054 30.2161C23.1961 29.6679 22.7151 29.2733 22.1561 29.2733H19.2289V23.447H22.1561C22.7149 23.447 23.1961 23.0524 23.3054 22.5042C23.8067 19.9897 24.7851 17.6297 26.213 15.4896C26.5231 15.0248 26.462 14.4056 26.0669 14.0105L23.9955 11.9392L28.1154 7.81934L30.1867 9.89062C30.5819 10.2857 31.2009 10.3472 31.666 10.0367C33.8045 8.60933 36.1646 7.63125 38.6807 7.12939C39.2287 7.02012 39.6235 6.53906 39.6235 5.98022V3.05273H45.4496V5.98022C45.4496 6.53906 45.8442 7.02026 46.3925 7.12954C48.9071 7.63081 51.2671 8.60903 53.4071 10.0371C53.872 10.3474 54.4908 10.2861 54.8863 9.89092L56.9577 7.81948L61.0774 11.9394L59.006 14.0106C58.6109 14.4059 58.5499 15.025 58.86 15.4898C60.2875 17.6284 61.2657 19.9884 61.7674 22.5042C61.8767 23.0522 62.3577 23.4469 62.9167 23.4469H65.8442V29.2733ZM42.5365 10.8388C33.9778 10.8388 27.015 17.8018 27.015 26.3603C27.015 34.9189 33.9778 41.8818 42.5365 41.8818C51.0951 41.8818 58.0581 34.9188 58.0581 26.3603C58.0581 17.8018 51.0951 10.8388 42.5365 10.8388ZM37.1224 38.3739C36.6061 38.1403 36.1077 37.8737 35.6292 37.5779V33.7197H37.1224V38.3739ZM42.3298 39.5355V30.2071H43.8231V39.4753C43.3996 39.5165 42.9705 39.5383 42.5365 39.5383C42.4675 39.5382 42.3986 39.5366 42.3298 39.5355ZM50.524 36.8339C50.0503 37.196 49.5515 37.5271 49.0306 37.8234V26.6944H50.524V36.8339ZM52.8677 34.5315V25.5226C52.8677 24.8754 52.343 24.3507 51.6959 24.3507H47.8587C47.2115 24.3507 46.6868 24.8754 46.6868 25.5226V38.8679C46.515 38.925 46.3418 38.9791 46.1669 39.0293V29.0351C46.1669 28.3879 45.6422 27.8632 44.9951 27.8632H41.1581C40.5109 27.8632 39.9862 28.3879 39.9862 29.0351V39.2895C39.8116 39.255 39.6383 39.2172 39.4662 39.1761V32.5478C39.4662 31.9006 38.9415 31.3759 38.2943 31.3759H34.4573C33.8101 31.3759 33.2854 31.9006 33.2854 32.5478V35.735C30.863 33.3441 29.3589 30.0248 29.3589 26.3603C29.3589 19.0941 35.2703 13.1826 42.5366 13.1826C49.803 13.1826 55.7145 19.0941 55.7145 26.3603C55.7144 29.4444 54.6491 32.284 52.8677 34.5315ZM48.9359 18.4209C49.1048 18.7134 49.1394 19.0646 49.0306 19.3844L47.9324 22.6106C47.7664 23.0981 47.311 23.4051 46.8232 23.4051C46.698 23.4051 46.5705 23.3849 46.4454 23.3423C45.8327 23.1337 45.5051 22.4679 45.7137 21.8553L45.8073 21.5805L33.9633 28.4186C33.7788 28.525 33.5772 28.5757 33.3786 28.5757C32.9734 28.5757 32.5796 28.3655 32.3626 27.9896C32.0388 27.4292 32.231 26.7125 32.7915 26.3889L44.6353 19.5508L44.3505 19.4944C43.7157 19.3688 43.3029 18.7522 43.4286 18.1173C43.5541 17.4823 44.1712 17.0694 44.8057 17.1954L48.1487 17.8573C48.4802 17.9228 48.7672 18.1283 48.9359 18.4209Z" fill="white"/>
</g>
<defs>
<clipPath id="clip0_1148_3308">
<rect x="0.686035" y="0.5625" width="75" height="75" rx="15" fill="white"/>
</clipPath>
</defs>
</svg>
