<svg width="76" height="75" viewBox="0 0 76 75" fill="none" xmlns="http://www.w3.org/2000/svg">
<path d="M72.2128 42.4336L69.4589 41.5195C69.6323 40.1867 69.7184 38.844 69.7167 37.5C69.718 36.1521 69.6319 34.8055 69.4589 33.4687L72.2128 32.5664C72.803 32.3733 73.2925 31.9539 73.5738 31.4002C73.855 30.8465 73.905 30.2038 73.7128 29.6133L71.5448 22.9336C71.4497 22.639 71.2972 22.3661 71.096 22.1308C70.8949 21.8955 70.6491 21.7023 70.3729 21.5625C70.0933 21.4174 69.7873 21.3302 69.4732 21.306C69.1591 21.2818 68.8433 21.3213 68.5448 21.4219L65.8261 22.2656C64.5507 19.901 62.9751 17.711 61.1386 15.75L62.8378 13.4062C63.02 13.1572 63.1512 12.8746 63.224 12.5746C63.2967 12.2747 63.3095 11.9634 63.2616 11.6585C63.2136 11.3536 63.106 11.0612 62.9448 10.7981C62.7836 10.5349 62.572 10.3062 62.3221 10.125L56.58 6.04687C56.0777 5.68254 55.4515 5.53222 54.8386 5.62888C54.2257 5.72554 53.6762 6.06128 53.3104 6.5625L51.5995 8.90625C49.1642 7.74443 46.5878 6.90532 43.9354 6.41016V3.51562C43.9354 2.89402 43.6885 2.29788 43.249 1.85834C42.8094 1.41881 42.2133 1.17188 41.5917 1.17188H34.5604C33.9388 1.17188 33.3427 1.41881 32.9032 1.85834C32.4636 2.29788 32.2167 2.89402 32.2167 3.51562V6.41016C29.5599 6.90277 26.9793 7.74197 24.5409 8.90625L22.8417 6.5625C22.4759 6.06128 21.9264 5.72554 21.3135 5.62888C20.7006 5.53222 20.0744 5.68254 19.5722 6.04687L13.8768 10.1719C13.627 10.3531 13.4154 10.5818 13.2542 10.8449C13.093 11.1081 12.9853 11.4005 12.9374 11.7054C12.8895 12.0103 12.9023 12.3216 12.975 12.6215C13.0478 12.9214 13.179 13.2041 13.3612 13.4531L15.0487 15.7969C13.2124 17.7624 11.637 19.9562 10.3612 22.3242L7.60731 21.4219C7.31415 21.3269 7.00516 21.2907 6.698 21.3154C6.39084 21.34 6.09155 21.4249 5.81726 21.5653C5.54296 21.7058 5.29905 21.8989 5.09948 22.1337C4.8999 22.3684 4.74859 22.6403 4.65418 22.9336L2.48622 29.6133C2.29397 30.2038 2.34396 30.8465 2.62521 31.4002C2.90645 31.9539 3.39596 32.3733 3.98622 32.5664L6.74012 33.4805C6.55105 34.8122 6.44927 36.1549 6.43543 37.5C6.43412 38.8479 6.52024 40.1945 6.69325 41.5312L3.93934 42.4336C3.34908 42.6267 2.85958 43.0461 2.57833 43.5998C2.29709 44.1535 2.2471 44.7962 2.43934 45.3867L4.60731 52.0664C4.70241 52.361 4.85493 52.6339 5.05607 52.8692C5.25721 53.1045 5.50298 53.2977 5.77918 53.4375C6.05881 53.5826 6.36482 53.6698 6.67892 53.694C6.99303 53.7182 7.30878 53.6788 7.60731 53.5781L10.3261 52.7344C11.6015 55.099 13.177 57.289 15.0136 59.25L13.3143 61.5938C13.1321 61.8428 13.0009 62.1254 12.9282 62.4254C12.8554 62.7253 12.8427 63.0366 12.8906 63.3415C12.9385 63.6464 13.0461 63.9388 13.2073 64.2019C13.3685 64.4651 13.5801 64.6938 13.83 64.875L19.5253 69C19.7783 69.1854 20.066 69.3181 20.3713 69.3903C20.6765 69.4625 20.9932 69.4726 21.3025 69.4202C21.6117 69.3677 21.9073 69.2537 22.1717 69.0849C22.4361 68.9161 22.6639 68.696 22.8417 68.4375L24.5526 66.0938C26.9879 67.2556 29.5643 68.0947 32.2167 68.5898V71.4844C32.2167 72.106 32.4636 72.7021 32.9032 73.1417C33.3427 73.5812 33.9388 73.8281 34.5604 73.8281H41.5917C42.2133 73.8281 42.8094 73.5812 43.249 73.1417C43.6885 72.7021 43.9354 72.106 43.9354 71.4844V68.5898C46.5882 68.0962 49.1648 67.2571 51.5995 66.0938L53.2987 68.4375C53.6644 68.9387 54.214 69.2745 54.8269 69.3711C55.4398 69.4678 56.066 69.3175 56.5682 68.9531L62.2636 64.8281C62.5134 64.6469 62.725 64.4182 62.8862 64.1551C63.0474 63.8919 63.1551 63.5995 63.203 63.2946C63.2509 62.9897 63.2381 62.6784 63.1654 62.3785C63.0926 62.0786 62.9614 61.7959 62.7792 61.5469L61.0917 59.2031C62.928 57.2376 64.5034 55.0438 65.7792 52.6758L68.5448 53.5781C68.838 53.6731 69.147 53.7093 69.4541 53.6846C69.7613 53.66 70.0606 53.5751 70.3349 53.4347C70.6092 53.2943 70.8531 53.1011 71.0526 52.8663C71.2522 52.6316 71.4035 52.3597 71.4979 52.0664L73.6659 45.3867C73.8603 44.8023 73.8168 44.1648 73.5449 43.6122C73.273 43.0595 72.7944 42.6362 72.2128 42.4336ZM69.3065 51.3398L66.5526 50.4492C66.0258 50.2867 65.4585 50.3151 64.9506 50.5294C64.4426 50.7437 64.0264 51.1303 63.7753 51.6211C62.5743 53.8094 61.1017 55.8371 59.3925 57.6563C59.0269 58.046 58.8056 58.549 58.7651 59.0819C58.7246 59.6147 58.8674 60.1454 59.1698 60.5859L60.869 62.9297L55.1854 67.0547L53.4862 64.7109C53.1622 64.2669 52.6925 63.9508 52.1591 63.818C51.6257 63.6852 51.0626 63.7441 50.5682 63.9844C48.3354 65.0655 45.972 65.8533 43.537 66.3281C42.991 66.428 42.4982 66.7183 42.1462 67.1475C41.7943 67.5767 41.6061 68.1169 41.6151 68.6719V71.4844H34.5604V68.5898C34.5695 68.0349 34.3813 67.4947 34.0293 67.0655C33.6774 66.6363 33.1846 66.3459 32.6386 66.2461C30.1842 65.7735 27.8012 64.9857 25.5487 63.9023C25.057 63.6683 24.4991 63.6128 23.9709 63.7454C23.4427 63.878 22.9771 64.1904 22.6542 64.6289L20.9432 66.9727L15.2597 62.9297L16.9589 60.5859C17.2796 60.1429 17.4352 59.6016 17.3988 59.0558C17.3624 58.5101 17.1363 57.9942 16.7597 57.5977C15.0504 55.7785 13.5778 53.7508 12.3768 51.5625C12.1257 51.0717 11.7095 50.6852 11.2016 50.4708C10.6936 50.2565 10.1263 50.2281 9.5995 50.3906L6.84559 51.293L4.6659 44.6602L7.41981 43.7578C7.93876 43.5877 8.382 43.2416 8.67299 42.7795C8.96397 42.3173 9.08443 41.7681 9.01356 41.2266C8.70105 38.752 8.70105 36.248 9.01356 33.7734C9.08443 33.2319 8.96397 32.6827 8.67299 32.2205C8.382 31.7584 7.93876 31.4123 7.41981 31.2422L4.6659 30.3398L6.84559 23.6602L9.5995 24.6094C10.1263 24.7719 10.6936 24.7435 11.2016 24.5292C11.7095 24.3148 12.1257 23.9283 12.3768 23.4375C13.5778 21.2492 15.0504 19.2215 16.7597 17.4023C17.1398 17.0086 17.3703 16.4942 17.4109 15.9484C17.4516 15.4026 17.3 14.8598 16.9823 14.4141L15.2831 12.0703L20.9667 7.94531L22.6659 10.2891C22.9899 10.7331 23.4596 11.0492 23.993 11.182C24.5264 11.3148 25.0895 11.2559 25.5839 11.0156C27.8168 9.93448 30.1801 9.1467 32.6151 8.67188C33.1611 8.57204 33.654 8.28167 34.0059 7.85247C34.3578 7.42327 34.546 6.8831 34.537 6.32813V3.51562H41.5682V6.41016C41.5592 6.96513 41.7474 7.5053 42.0993 7.9345C42.4513 8.3637 42.9441 8.65407 43.4901 8.75391C45.9244 9.23138 48.2874 10.0191 50.5214 11.0977C51.0131 11.3317 51.571 11.3872 52.0992 11.2546C52.6274 11.122 53.093 10.8096 53.4159 10.3711L55.1268 8.02734L60.8104 12.1641L59.1698 14.4141C58.8491 14.8571 58.6935 15.3984 58.7299 15.9442C58.7662 16.4899 58.9923 17.0058 59.369 17.4023C61.0865 19.2201 62.567 21.2479 63.7753 23.4375C64.0264 23.9283 64.4426 24.3148 64.9506 24.5292C65.4585 24.7435 66.0258 24.7719 66.5526 24.6094L69.3065 23.707L71.4862 30.3984L68.7323 31.3008C68.2134 31.4709 67.7701 31.817 67.4791 32.2791C67.1881 32.7413 67.0677 33.2905 67.1386 33.832C67.4511 36.3066 67.4511 38.8106 67.1386 41.2852C67.0677 41.8267 67.1881 42.3759 67.4791 42.8381C67.7701 43.3002 68.2134 43.6463 68.7323 43.8164L71.4862 44.7187L69.3065 51.3398Z" fill="white"/>
<path d="M22.326 21.7499C26.0728 18.0382 31.0094 15.7681 36.2659 15.3393C41.5224 14.9105 46.7616 16.3507 51.0604 19.4061H47.8026V21.7499H54.951C55.1392 21.7498 55.3245 21.7044 55.4914 21.6176C55.6583 21.5308 55.8018 21.405 55.9099 21.251C56.0179 21.097 56.0873 20.9192 56.1121 20.7327C56.137 20.5462 56.1166 20.3565 56.0526 20.1796L53.6151 13.453L51.412 14.2616L52.5838 17.6483C47.9928 14.2748 42.3735 12.5987 36.6846 12.906C30.9956 13.2132 25.5895 15.4848 21.3886 19.3332C17.1876 23.1815 14.4519 28.3683 13.6484 34.0085C12.8448 39.6488 14.0231 45.3931 16.9823 50.2616L18.9862 49.0897C16.3951 44.8186 15.3157 39.8002 15.9215 34.8414C16.5272 29.8827 18.783 25.2717 22.326 21.7499Z" fill="white"/>
<path d="M57.119 25.957C59.7358 30.3365 60.7692 35.4817 60.0464 40.5319C59.3236 45.5821 56.8885 50.2309 53.1485 53.7006C49.4084 57.1702 44.5902 59.2503 39.5001 59.5928C34.41 59.9353 29.3566 58.5194 25.1855 55.582H28.4315V53.2383H21.2831C21.0936 53.2377 20.9067 53.283 20.7385 53.3705C20.5703 53.458 20.4259 53.585 20.3176 53.7405C20.2093 53.8961 20.1403 54.0756 20.1166 54.2637C20.0929 54.4517 20.1152 54.6427 20.1815 54.8203L22.619 61.5352L24.8222 60.7383L23.58 57.3281C28.1703 60.6845 33.7812 62.3477 39.4591 62.0349C45.137 61.7221 50.5313 59.4526 54.7251 55.6123C58.9189 51.772 61.6534 46.5979 62.4637 40.9694C63.274 35.341 62.1101 29.6056 59.1698 24.7383L57.119 25.957Z" fill="white"/>
<path d="M21.6699 39.8433V45.7027C21.6699 46.0135 21.7934 46.3115 22.0132 46.5313C22.2329 46.7511 22.531 46.8745 22.8418 46.8745H31.0449C31.0449 47.1853 31.1684 47.4834 31.3882 47.7032C31.6079 47.923 31.906 48.0464 32.2168 48.0464H43.9355C44.2463 48.0464 44.5444 47.923 44.7642 47.7032C44.984 47.4834 45.1074 47.1853 45.1074 46.8745H53.3105C53.6213 46.8745 53.9194 46.7511 54.1392 46.5313C54.359 46.3115 54.4824 46.0135 54.4824 45.7027V39.8433C54.4785 38.849 54.1585 37.8816 53.5687 37.0812C52.9788 36.2807 52.1497 35.6885 51.2012 35.3902C51.8608 34.857 52.339 34.1325 52.5698 33.3164C52.8006 32.5002 52.7727 31.6326 52.49 30.8329C52.2073 30.0333 51.6836 29.3409 50.991 28.8512C50.2985 28.3616 49.4712 28.0986 48.623 28.0986C47.7749 28.0986 46.9476 28.3616 46.255 28.8512C45.5625 29.3409 45.0388 30.0333 44.7561 30.8329C44.4733 31.6326 44.4455 32.5002 44.6763 33.3164C44.9071 34.1325 45.3853 34.857 46.0449 35.3902C45.3102 35.6154 44.6422 36.0179 44.0996 36.562C43.3234 35.4217 42.1698 34.5917 40.8418 34.2183C41.6402 33.6349 42.2336 32.814 42.5372 31.8729C42.8408 30.9319 42.8391 29.919 42.5323 28.979C42.2254 28.039 41.6292 27.2201 40.8288 26.6394C40.0285 26.0588 39.065 25.7461 38.0762 25.7461C37.0874 25.7461 36.1239 26.0588 35.3235 26.6394C34.5232 27.2201 33.9269 28.039 33.6201 28.979C33.3132 29.919 33.3115 30.9319 33.6151 31.8729C33.9188 32.814 34.5122 33.6349 35.3105 34.2183C33.9826 34.5917 32.8289 35.4217 32.0527 36.562C31.5102 36.0179 30.8421 35.6154 30.1074 35.3902C30.7671 34.857 31.2452 34.1325 31.4761 33.3164C31.7069 32.5002 31.679 31.6326 31.3963 30.8329C31.1135 30.0333 30.5898 29.3409 29.8973 28.8512C29.2048 28.3616 28.3775 28.0986 27.5293 28.0986C26.6811 28.0986 25.8538 28.3616 25.1613 28.8512C24.4688 29.3409 23.9451 30.0333 23.6623 30.8329C23.3796 31.6326 23.3517 32.5002 23.5825 33.3164C23.8133 34.1325 24.2915 34.857 24.9512 35.3902C24.0026 35.6885 23.1735 36.2807 22.5837 37.0812C21.9938 37.8816 21.6738 38.849 21.6699 39.8433ZM48.623 30.4683C48.9707 30.4683 49.3106 30.5714 49.5996 30.7645C49.8887 30.9577 50.114 31.2322 50.2471 31.5534C50.3801 31.8746 50.4149 32.2281 50.3471 32.569C50.2793 32.91 50.1118 33.2232 49.866 33.4691C49.6202 33.7149 49.307 33.8823 48.966 33.9501C48.625 34.018 48.2716 33.9832 47.9504 33.8501C47.6292 33.7171 47.3546 33.4918 47.1615 33.2027C46.9683 32.9136 46.8652 32.5738 46.8652 32.2261C46.8652 31.7599 47.0504 31.3128 47.3801 30.9831C47.7097 30.6535 48.1568 30.4683 48.623 30.4683ZM45.1074 39.8433C45.1074 39.2217 45.3544 38.6256 45.7939 38.186C46.2334 37.7465 46.8296 37.4995 47.4512 37.4995H49.7949C50.4165 37.4995 51.0127 37.7465 51.4522 38.186C51.8917 38.6256 52.1387 39.2217 52.1387 39.8433V44.5308H45.1074V39.8433ZM38.0762 28.1245C38.5397 28.1245 38.9929 28.262 39.3783 28.5195C39.7637 28.7771 40.0641 29.1431 40.2415 29.5714C40.4189 29.9996 40.4653 30.4709 40.3749 30.9255C40.2845 31.3802 40.0612 31.7978 39.7335 32.1256C39.4057 32.4534 38.9881 32.6766 38.5334 32.767C38.0788 32.8574 37.6075 32.811 37.1793 32.6336C36.751 32.4562 36.3849 32.1558 36.1274 31.7704C35.8699 31.385 35.7324 30.9318 35.7324 30.4683C35.7324 29.8467 35.9794 29.2506 36.4189 28.811C36.8584 28.3715 37.4546 28.1245 38.0762 28.1245ZM33.3887 39.8433C33.3887 38.9109 33.7591 38.0167 34.4184 37.3574C35.0777 36.6981 35.9719 36.3277 36.9043 36.3277H39.248C40.1804 36.3277 41.0747 36.6981 41.734 37.3574C42.3933 38.0167 42.7637 38.9109 42.7637 39.8433V45.7027H33.3887V39.8433ZM27.5293 30.4683C27.877 30.4683 28.2168 30.5714 28.5059 30.7645C28.795 30.9577 29.0203 31.2322 29.1533 31.5534C29.2863 31.8746 29.3212 32.2281 29.2533 32.569C29.1855 32.91 29.0181 33.2232 28.7723 33.4691C28.5264 33.7149 28.2132 33.8823 27.8722 33.9501C27.5312 34.018 27.1778 33.9832 26.8566 33.8501C26.5354 33.7171 26.2609 33.4918 26.0677 33.2027C25.8746 32.9136 25.7715 32.5738 25.7715 32.2261C25.7715 31.7599 25.9567 31.3128 26.2863 30.9831C26.616 30.6535 27.0631 30.4683 27.5293 30.4683ZM24.0137 39.8433C24.0137 39.2217 24.2606 38.6256 24.7001 38.186C25.1397 37.7465 25.7358 37.4995 26.3574 37.4995H28.7012C29.3228 37.4995 29.9189 37.7465 30.3585 38.186C30.798 38.6256 31.0449 39.2217 31.0449 39.8433V44.5308H24.0137V39.8433Z" fill="white"/>
</svg>
