<svg width="28" height="29" viewBox="0 0 28 29" fill="none" xmlns="http://www.w3.org/2000/svg">
<path d="M14 28.75C21.7087 28.75 28 22.4583 28 14.75C28 7.04125 21.7083 0.75 14 0.75C6.2913 0.75 0 7.04174 0 14.75C0 22.4588 6.29174 28.75 14 28.75ZM18.1534 26.3906C18.9466 25.377 19.5546 24.168 20.0113 22.9526H23.236C21.8696 24.4898 20.1268 25.6843 18.1534 26.3906ZM24.4684 21.3125H20.5417C21.0258 19.5522 21.3098 17.6005 21.3701 15.5703H26.3315C26.1932 17.6697 25.5287 19.6273 24.4684 21.3125ZM24.4684 8.1875C25.5287 9.8727 26.1932 11.8303 26.3315 13.9297H21.3701C21.3098 11.8995 21.0258 9.94778 20.5417 8.1875H24.4684ZM23.236 6.54688H20.0113C19.5547 5.33254 18.9468 4.12334 18.1533 3.10938C20.1268 3.81567 21.8696 5.01016 23.236 6.54688ZM14.8203 2.53095C16.4301 3.07657 17.5849 4.99107 18.2454 6.54688H14.8203V2.53095ZM14.8203 8.1875H18.8359C19.3575 9.91442 19.6643 11.8736 19.7289 13.9297H14.8203V8.1875ZM14.8203 15.5698H19.7289C19.6643 17.6264 19.3575 19.5856 18.8359 21.3125H14.8203V15.5698ZM14.8203 22.9526H18.2454C17.5838 24.5116 16.4288 26.4239 14.8203 26.969V22.9526ZM4.76405 22.9531H7.98875C8.44528 24.1675 9.05324 25.3767 9.8467 26.3906C7.8732 25.6844 6.13041 24.4898 4.76405 22.9531ZM13.1797 26.969C11.5713 26.4239 10.4163 24.5118 9.75455 22.9531H13.1797V26.969ZM13.1797 21.3125H9.16415C8.64254 19.5856 8.33569 17.6264 8.2711 15.5703H13.1797V21.3125ZM13.1797 13.9297H8.2711C8.33569 11.8736 8.64254 9.91442 9.16415 8.1875H13.1797V13.9297ZM13.1797 2.53095V6.54688H9.75455C10.4162 4.98839 11.5712 3.07613 13.1797 2.53095ZM9.84665 3.10938C9.05341 4.12302 8.44545 5.33199 7.9887 6.54688H4.76405C6.13041 5.01016 7.8732 3.81562 9.84665 3.10938ZM3.53155 8.18695H7.45834C6.97424 9.94778 6.69025 11.8995 6.62988 13.9297H1.66852C1.80677 11.8303 2.47133 9.8727 3.53155 8.18695ZM1.66852 15.5703H6.62988C6.69025 17.6005 6.97424 19.5522 7.45834 21.3125H3.53155C2.47133 19.6273 1.80677 17.6697 1.66852 15.5703Z" fill="white"/>
</svg>
