<svg width="20" height="20" viewBox="0 0 20 20" fill="none" xmlns="http://www.w3.org/2000/svg">
<path d="M19.925 19.675V12.35C19.925 8.75 19.15 6 14.95 6C12.925 6 11.575 7.1 11.025 8.15H10.975V6.325H7V19.675H11.15V13.05C11.15 11.3 11.475 9.625 13.625 9.625C15.75 9.625 15.775 11.6 15.775 13.15V19.65H19.925V19.675Z" fill="white"/>
<path d="M0.325195 6.65039H4.47519V20.0004H0.325195V6.65039Z" fill="white"/>
<path d="M2.4 0C1.075 0 0 1.075 0 2.4C0 3.725 1.075 4.825 2.4 4.825C3.725 4.825 4.8 3.725 4.8 2.4C4.8 1.075 3.725 0 2.4 0Z" fill="white"/>
</svg>
