<svg width="15" height="15" viewBox="0 0 15 15" fill="none" xmlns="http://www.w3.org/2000/svg">
<path fill-rule="evenodd" clip-rule="evenodd" d="M7.5 15C3.35852 15 0 11.6415 0 7.5C0 3.35852 3.35852 0 7.5 0C11.6415 0 15 3.35852 15 7.5C15 11.6415 11.6415 15 7.5 15ZM7.5 2.62169C9.55169 2.62169 11.2149 4.28486 11.2149 6.33656C11.2149 8.38819 7.5 12.3782 7.5 12.3782C7.5 12.3782 3.78514 8.38819 3.78514 6.33656C3.78514 4.28486 5.44831 2.62169 7.5 2.62169ZM7.5 4.86059C8.27787 4.86059 8.9087 5.49142 8.9087 6.26935C8.9087 7.04722 8.27787 7.67805 7.5 7.67805C6.72213 7.67805 6.0913 7.04722 6.0913 6.26935C6.0913 5.49142 6.72213 4.86059 7.5 4.86059Z" fill="white"/>
</svg>
