<svg width="28" height="29" viewBox="0 0 28 29" fill="none" xmlns="http://www.w3.org/2000/svg">
<path d="M21.4534 11.4972C21.4535 10.4417 21.2986 9.39187 20.9936 8.38139C20.5607 6.94402 19.8307 5.61355 18.8511 4.47608C17.8715 3.3386 16.664 2.41945 15.3067 1.77809C13.9495 1.13673 12.4727 0.787449 10.9719 0.752849C9.47113 0.718249 7.97981 0.999099 6.59443 1.57723C5.20905 2.15535 3.96047 3.01788 2.92947 4.10901C1.89847 5.20013 1.10802 6.49554 0.609256 7.91143C0.110492 9.32732 -0.0854708 10.8322 0.0340443 12.3286C0.153559 13.825 0.58589 15.2796 1.30307 16.5984L0.039415 21.0338C-0.000125535 21.1725 -0.00691857 21.3186 0.0195704 21.4605C0.0460593 21.6023 0.105107 21.7361 0.192068 21.8513C0.279029 21.9664 0.391529 22.0598 0.520716 22.1241C0.649903 22.1885 0.792252 22.2219 0.936561 22.2219C1.02295 22.2217 1.10891 22.2098 1.19209 22.1864L5.62839 20.9218C6.25782 21.2668 6.92173 21.5447 7.6092 21.7509C8.61951 22.0635 9.67112 22.2223 10.7287 22.2219C13.5721 22.2187 16.2981 21.0877 18.3087 19.0771C20.3192 17.0665 21.4502 14.3405 21.4534 11.4972Z" fill="#028DCF"/>
<path d="M27.9454 27.5616L26.6818 23.1262C27.9724 20.7508 28.3167 17.9751 27.6455 15.3563C26.9744 12.7376 25.3374 10.4696 23.0633 9.00781C23.437 10.8355 23.3989 12.7235 22.9518 14.5346C22.5048 16.3457 21.66 18.0345 20.4788 19.4784C19.2976 20.9223 17.8097 22.0851 16.1231 22.8822C14.4365 23.6793 12.5935 24.0908 10.7281 24.0868C9.89684 24.0842 9.06797 23.9983 8.25391 23.8303C9.22897 25.3323 10.5622 26.5683 12.1337 27.4271C13.7051 28.2858 15.4654 28.7403 17.2561 28.7497C19.0384 28.7499 20.7923 28.3033 22.3574 27.4506L26.7927 28.7142C26.8759 28.7376 26.9619 28.7495 27.0483 28.7497C27.1926 28.7497 27.3349 28.7163 27.4641 28.652C27.5933 28.5876 27.7058 28.4942 27.7928 28.3791C27.8797 28.2639 27.9388 28.1301 27.9653 27.9883C27.9917 27.8464 27.985 27.7004 27.9454 27.5616Z" fill="#0C4F8C"/>
</svg>
