<svg width="75" height="75" viewBox="0 0 75 75" fill="none" xmlns="http://www.w3.org/2000/svg">
<path d="M68.5364 30.5386L64.4463 29.5155C63.8901 27.6363 63.1371 25.8224 62.1964 24.0955L64.3684 20.4758C64.9223 19.5534 64.7758 18.3723 64.016 17.6125L57.3875 10.984C56.6277 10.2219 55.4466 10.0777 54.5242 10.6316L50.9056 12.8036C49.1776 11.8641 47.3648 11.1111 45.4834 10.5549L44.4603 6.46248C44.1994 5.41992 43.2632 4.6875 42.1875 4.6875H32.8125C31.7368 4.6875 30.8006 5.41992 30.5397 6.46248L29.5166 10.5549C27.6375 11.1111 25.8224 11.8641 24.0944 12.8036L20.4758 10.6316C19.5534 10.0788 18.3723 10.223 17.6125 10.984L10.984 17.6125C10.2242 18.3723 10.0777 19.5534 10.6316 20.4758L12.8036 24.0955C11.8629 25.8224 11.1099 27.6363 10.5537 29.5155L6.46362 30.5386C5.41992 30.7995 4.6875 31.7368 4.6875 32.8125V42.1875C4.6875 43.2632 5.41992 44.2005 6.46362 44.4614L10.5537 45.4845C11.1099 47.3637 11.8629 49.1776 12.8036 50.9045L10.6316 54.5242C10.0777 55.4466 10.2242 56.6277 10.984 57.3875L17.6125 64.016C18.3701 64.7758 19.5534 64.9178 20.4758 64.3684L24.0944 62.1964C25.8224 63.1359 27.6375 63.8889 29.5166 64.4451L30.5397 68.5375C30.8006 69.5801 31.7368 70.3125 32.8125 70.3125H42.1875C43.2632 70.3125 44.1994 69.5801 44.4603 68.5375L45.4834 64.4451C47.3648 63.8889 49.1776 63.1359 50.9056 62.1964L54.5242 64.3684C55.4466 64.9189 56.6277 64.7781 57.3875 64.016L64.016 57.3875C64.7758 56.6277 64.9223 55.4466 64.3684 54.5242L62.1964 50.9045C63.1371 49.1776 63.8901 47.3637 64.4463 45.4845L68.5364 44.4614C69.5801 44.2005 70.3125 43.2632 70.3125 42.1875V32.8125C70.3125 31.7368 69.5801 30.7995 68.5364 30.5386ZM65.625 40.3576L61.972 41.2708C61.1252 41.4825 60.466 42.1474 60.26 42.9966C59.6924 45.3609 58.7563 47.6177 57.4791 49.7028C57.0236 50.4478 57.019 51.384 57.4677 52.1336L59.4086 55.3665L55.3665 59.4074L52.1347 57.4677C51.384 57.0168 50.4456 57.0225 49.704 57.478C47.6189 58.7551 45.3621 59.6912 42.9955 60.2612C42.1463 60.466 41.4825 61.124 41.272 61.9709L40.3564 65.625H34.6436L33.728 61.9709C33.5175 61.124 32.8537 60.466 32.0045 60.2612C29.6379 59.6912 27.3811 58.7551 25.296 57.478C24.5522 57.0225 23.6137 57.0179 22.8653 57.4677L19.6335 59.4074L15.5914 55.3665L17.5323 52.1336C17.981 51.384 17.9764 50.4478 17.5209 49.7028C16.2437 47.6177 15.3076 45.3609 14.74 42.9966C14.534 42.1474 13.8748 41.4825 13.028 41.2708L9.375 40.3576V34.6424L13.028 33.7292C13.8748 33.5175 14.534 32.8526 14.74 32.0034C15.3076 29.6391 16.2437 27.3823 17.5209 25.2972C17.9764 24.5522 17.981 23.616 17.5323 22.8664L15.5914 19.6335L19.6335 15.5926L22.8653 17.5323C23.6115 17.9798 24.5522 17.9787 25.296 17.522C27.3811 16.2449 29.6379 15.3088 32.0045 14.7388C32.8537 14.534 33.5175 13.876 33.728 13.0291L34.6436 9.375H40.3564L41.272 13.0291C41.4825 13.876 42.1463 14.534 42.9955 14.7388C45.3621 15.3088 47.6189 16.2449 49.704 17.522C50.4478 17.9787 51.3863 17.981 52.1347 17.5323L55.3665 15.5926L59.4086 19.6335L57.4677 22.8664C57.019 23.616 57.0236 24.5522 57.4791 25.2972C58.7563 27.3823 59.6924 29.6391 60.26 32.0034C60.466 32.8526 61.1252 33.5175 61.972 33.7292L65.625 34.6424V40.3576Z" fill="white"/>
<path d="M37.5 30.4688C38.7932 30.4688 39.8438 31.5205 39.8438 32.8125C39.8438 34.1068 40.892 35.1562 42.1875 35.1562C43.483 35.1562 44.5313 34.1068 44.5313 32.8125C44.5313 29.7611 42.566 27.1837 39.8438 26.2131V25.7812C39.8438 24.4869 38.7955 23.4375 37.5 23.4375C36.2045 23.4375 35.1563 24.4869 35.1563 25.7812V26.2131C32.434 27.1837 30.4688 29.7611 30.4688 32.8125C30.4688 36.6898 33.6227 39.8438 37.5 39.8438C38.7932 39.8438 39.8438 40.8955 39.8438 42.1875C39.8438 43.4795 38.7932 44.5312 37.5 44.5312C36.2068 44.5312 35.1563 43.4795 35.1563 42.1875C35.1563 40.8932 34.108 39.8438 32.8125 39.8438C31.517 39.8438 30.4688 40.8932 30.4688 42.1875C30.4688 45.2389 32.434 47.8161 35.1563 48.7867V49.2188C35.1563 50.5131 36.2045 51.5625 37.5 51.5625C38.7955 51.5625 39.8438 50.5131 39.8438 49.2188V48.7869C42.566 47.8163 44.5313 45.2389 44.5313 42.1875C44.5313 38.3102 41.3773 35.1562 37.5 35.1562C36.2068 35.1562 35.1563 34.1045 35.1563 32.8125C35.1563 31.5205 36.2068 30.4688 37.5 30.4688Z" fill="white"/>
<path d="M37.5 16.4062C25.8682 16.4062 16.4062 25.8694 16.4062 37.5C16.4062 49.1306 25.8682 58.5938 37.5 58.5938C49.1318 58.5938 58.5938 49.1306 58.5938 37.5C58.5938 25.8694 49.1318 16.4062 37.5 16.4062ZM37.5 53.9062C28.4546 53.9062 21.0938 46.5466 21.0938 37.5C21.0938 28.4534 28.4546 21.0938 37.5 21.0938C46.5454 21.0938 53.9062 28.4534 53.9062 37.5C53.9062 46.5466 46.5454 53.9062 37.5 53.9062Z" fill="white"/>
</svg>
