<svg width="24" height="25" viewBox="0 0 24 25" fill="none" xmlns="http://www.w3.org/2000/svg">
<path fill-rule="evenodd" clip-rule="evenodd" d="M12 24.707C18.4721 24.707 23.7188 19.2417 23.7188 12.5C23.7188 5.75825 18.4721 0.292969 12 0.292969C5.52792 0.292969 0.28125 5.75825 0.28125 12.5C0.28125 19.2417 5.52792 24.707 12 24.707ZM7.87448 10.2832H10.3078V8.10933C10.3078 5.58843 11.7853 4.21631 13.944 4.21631C14.6727 4.21362 15.401 4.25239 16.1256 4.33247V6.96724H14.6369C13.4623 6.96724 13.2349 7.54863 13.2349 8.4019V10.2832H16.0432L15.6772 13.2373H13.2351V20.7837H10.3078V13.2373H7.87448V10.2832Z" fill="white"/>
</svg>
