<svg width="24" height="25" viewBox="0 0 24 25" fill="none" xmlns="http://www.w3.org/2000/svg">
<g clip-path="url(#clip0_1148_3258)">
<path d="M12 15.0635C13.3591 15.0635 14.4609 13.9158 14.4609 12.5C14.4609 11.0842 13.3591 9.93652 12 9.93652C10.6409 9.93652 9.53906 11.0842 9.53906 12.5C9.53906 13.9158 10.6409 15.0635 12 15.0635Z" fill="white"/>
<path d="M12 0.292969C5.52792 0.292969 0.28125 5.75825 0.28125 12.5C0.28125 19.2417 5.52792 24.707 12 24.707C18.4721 24.707 23.7188 19.2417 23.7188 12.5C23.7188 5.75825 18.4721 0.292969 12 0.292969ZM19.2402 15.6025C19.184 16.7631 18.8709 17.9075 18.059 18.7443C17.2392 19.589 16.1353 19.9038 15.0105 19.9618H8.98959C7.86459 19.9038 6.76087 19.5892 5.94108 18.7443C5.12911 17.9075 4.81608 16.7631 4.75983 15.6025V9.39746C4.81608 8.23691 5.12916 7.09248 5.94108 6.25566C6.76087 5.41094 7.86473 5.09619 8.98959 5.03823H15.0104C16.1354 5.09619 17.2391 5.41079 18.0589 6.25566C18.8709 7.09248 19.1839 8.23691 19.2402 9.39746L19.2402 15.6025Z" fill="white"/>
<path d="M14.9347 6.45232C13.4682 6.41042 10.5329 6.41042 9.06636 6.45232C8.30319 6.47415 7.43802 6.67205 6.89427 7.27703C6.32924 7.90588 6.11572 8.66565 6.09407 9.5156C6.056 11.0074 6.09407 15.4849 6.09407 15.4849C6.11886 16.3348 6.32924 17.0947 6.89427 17.7235C7.43802 18.3287 8.30319 18.5264 9.06636 18.5482C10.5329 18.5901 13.4682 18.5901 14.9347 18.5482C15.6979 18.5264 16.5631 18.3285 17.1068 17.7235C17.6719 17.0947 17.8854 16.3349 17.907 15.4849V9.5156C17.8854 8.66565 17.6719 7.90588 17.1068 7.27703C16.5629 6.67185 15.6977 6.47415 14.9347 6.45232ZM12.0004 16.4737C11.2459 16.4737 10.5084 16.2406 9.88117 15.804C9.25388 15.3674 8.76497 14.7469 8.47627 14.0208C8.18756 13.2948 8.11202 12.4959 8.2592 11.7251C8.40638 10.9543 8.76968 10.2463 9.30314 9.69066C9.8366 9.13497 10.5163 8.75654 11.2562 8.60323C11.9961 8.44991 12.7631 8.5286 13.4601 8.82934C14.1571 9.13007 14.7528 9.63935 15.172 10.2928C15.5911 10.9462 15.8148 11.7144 15.8148 12.5003C15.8148 13.5541 15.4129 14.5647 14.6976 15.3099C13.9822 16.055 13.012 16.4737 12.0004 16.4737ZM15.831 9.34705C15.6802 9.34701 15.5327 9.30037 15.4072 9.21302C15.2818 9.12568 15.1841 9.00155 15.1263 8.85634C15.0686 8.71113 15.0536 8.55135 15.083 8.39721C15.1125 8.24308 15.1851 8.1015 15.2918 7.99038C15.3985 7.87926 15.5345 7.80359 15.6825 7.77295C15.8304 7.7423 15.9838 7.75805 16.1232 7.8182C16.2626 7.87835 16.3817 7.98021 16.4656 8.11089C16.5494 8.24157 16.5941 8.3952 16.5941 8.55237C16.5941 8.65674 16.5744 8.7601 16.536 8.85652C16.4977 8.95295 16.4415 9.04056 16.3706 9.11436C16.2997 9.18815 16.2156 9.24669 16.123 9.28661C16.0305 9.32654 15.9312 9.34707 15.831 9.34705Z" fill="white"/>
</g>
<defs>
<clipPath id="clip0_1148_3258">
<rect width="24" height="25" fill="white"/>
</clipPath>
</defs>
</svg>
