<svg width="24" height="25" viewBox="0 0 24 25" fill="none" xmlns="http://www.w3.org/2000/svg">
<path d="M12 0C9.62663 0 7.30655 0.733112 5.33316 2.10663C3.35977 3.48015 1.8217 5.43238 0.913451 7.71646C0.00519938 10.0005 -0.232441 12.5139 0.230582 14.9386C0.693605 17.3634 1.83649 19.5907 3.51472 21.3388C5.19295 23.087 7.33115 24.2775 9.65892 24.7598C11.9867 25.2421 14.3995 24.9946 16.5922 24.0485C18.7849 23.1024 20.6591 21.5002 21.9776 19.4446C23.2962 17.389 24 14.9723 24 12.5C24 9.18479 22.7357 6.00537 20.4853 3.66117C18.2349 1.31696 15.1826 0 12 0ZM8.51053 19.0789H5.89264V10.2944H8.51053V19.0789ZM7.20001 9.0954C6.89872 9.09669 6.60383 9.00492 6.35261 8.83167C6.10138 8.65842 5.90511 8.41148 5.78859 8.12206C5.67207 7.83264 5.64053 7.51373 5.69797 7.20565C5.75541 6.89756 5.89925 6.61413 6.11129 6.39118C6.32334 6.16823 6.59408 6.01577 6.8893 5.95307C7.18451 5.89036 7.49094 5.92024 7.76986 6.03891C8.04878 6.15758 8.28766 6.35973 8.45631 6.61979C8.62496 6.87985 8.71581 7.18616 8.71737 7.5C8.71822 7.92084 8.55908 8.3249 8.27474 8.62386C7.9904 8.92282 7.604 9.09235 7.20001 9.0954ZM18.3158 19.0789H15.6995V14.8026C15.6995 13.7829 15.6805 12.4753 14.3384 12.4753C12.9963 12.4753 12.7595 13.5839 12.7595 14.7286V19.0789H10.1526V10.2944H12.6647V11.4918H12.7011C13.05 10.801 13.9042 10.0724 15.1784 10.0724C17.8279 10.0724 18.3158 11.8914 18.3158 14.2533V19.0789Z" fill="white"/>
</svg>
