<svg width="24" height="25" viewBox="0 0 24 25" fill="none" xmlns="http://www.w3.org/2000/svg">
<path d="M15.3158 9.04649L15.2921 9.02182C14.5072 8.20862 13.4701 7.71306 12.3664 7.62391C11.2627 7.53476 10.1646 7.85784 9.26878 8.53529C8.37295 9.21274 7.73794 10.2003 7.47749 11.321C7.21703 12.4418 7.34815 13.6225 7.84736 14.6518L8.05262 15.0728L7.66894 17.0103V17.035L9.51157 16.5794L9.93157 16.7965C10.8057 17.2485 11.794 17.4033 12.7571 17.2393C13.7202 17.0752 14.6096 16.6005 15.3 15.882C16.1668 14.9747 16.6547 13.7477 16.6577 12.4676C16.6606 11.1876 16.1784 9.95812 15.3158 9.04649ZM15.1295 14.4741C14.9037 14.8442 14.5453 15.2965 14.0984 15.41C13.3089 15.609 12.1074 15.41 10.6026 13.961L10.5837 13.9429C9.27473 12.6698 8.92736 11.609 9.00473 10.7685C9.05051 10.2916 9.43262 9.86064 9.75473 9.57774C9.80581 9.53242 9.86641 9.50025 9.93163 9.48382C9.99685 9.4674 10.0649 9.46718 10.1302 9.48319C10.1955 9.4992 10.2563 9.53098 10.3076 9.57598C10.359 9.62098 10.3995 9.67792 10.4258 9.74221L10.9105 10.8935C10.9422 10.967 10.954 11.0481 10.9449 11.128C10.9357 11.208 10.9058 11.2838 10.8584 11.3475L10.6121 11.6764C10.5609 11.7447 10.5304 11.8273 10.5245 11.9138C10.5186 12.0002 10.5375 12.0865 10.5789 12.1616C10.813 12.5203 11.093 12.844 11.411 13.1238C11.7525 13.468 12.1409 13.7579 12.5637 13.984C12.6407 14.0166 12.7253 14.0244 12.8066 14.0065C12.8879 13.9886 12.9622 13.9459 13.02 13.8837L13.3026 13.586C13.3554 13.523 13.424 13.4767 13.5008 13.4522C13.5775 13.4278 13.6593 13.4263 13.7368 13.4478L14.8895 13.7932C14.9535 13.8127 15.0124 13.8475 15.0614 13.8948C15.1103 13.942 15.1481 14.0005 15.1717 14.0656C15.1952 14.1306 15.204 14.2005 15.1972 14.2697C15.1904 14.3389 15.1683 14.4055 15.1326 14.4643L15.1295 14.4741Z" fill="white"/>
<path d="M12 0C9.62663 0 7.30655 0.733112 5.33316 2.10663C3.35977 3.48015 1.8217 5.43238 0.913451 7.71646C0.00519938 10.0005 -0.232441 12.5139 0.230582 14.9386C0.693605 17.3634 1.83649 19.5907 3.51472 21.3388C5.19295 23.087 7.33115 24.2775 9.65892 24.7598C11.9867 25.2421 14.3995 24.9946 16.5922 24.0485C18.7849 23.1024 20.6591 21.5002 21.9776 19.4446C23.2962 17.389 24 14.9723 24 12.5C24 9.18479 22.7357 6.00537 20.4853 3.66117C18.2349 1.31696 15.1826 0 12 0ZM17.9479 12.6464C17.9155 13.6845 17.6333 14.6975 17.1272 15.5925C16.6212 16.4875 15.9075 17.2357 15.0516 17.7686C14.1956 18.3015 13.225 18.6019 12.2286 18.6424C11.2322 18.6828 10.2421 18.4619 9.34895 18L6.34895 18.7434C6.3036 18.7543 6.25616 18.7506 6.2128 18.733C6.16944 18.7155 6.13216 18.6847 6.10579 18.6447C6.08777 18.618 6.07525 18.5877 6.069 18.5558C6.06275 18.5238 6.06291 18.4908 6.06948 18.4589L6.70106 15.2648C6.28822 14.4222 6.06595 13.4923 6.05126 12.5464C6.03657 11.6005 6.22986 10.6636 6.61632 9.80754C7.00278 8.95144 7.57217 8.19881 8.2809 7.60725C8.98963 7.0157 9.81891 6.60091 10.7052 6.39465C11.5916 6.18838 12.5115 6.19611 13.3945 6.41724C14.2775 6.63836 15.1003 7.06703 15.7998 7.67041C16.4992 8.2738 17.0569 9.0359 17.4301 9.89838C17.8032 10.7609 17.982 11.7008 17.9526 12.6464H17.9479Z" fill="white"/>
</svg>
