<svg width="75" height="75" viewBox="0 0 75 75" fill="none" xmlns="http://www.w3.org/2000/svg">
<path d="M73.6318 55.2245C72.8394 52.264 69.7617 50.4652 66.6255 51.1229L44.7671 55.7635C45.1971 54.5812 45.198 53.2853 44.7696 52.1024C44.3412 50.9194 43.5107 49.9247 42.4233 49.2919L29.7524 41.975C29.244 41.6574 28.7663 41.293 28.3257 40.8866C27.2124 39.9242 25.8267 38.7274 23.2441 38.452C20.7905 38.1913 17.5972 38.7669 13.2832 40.2596C13.1392 39.3448 12.6736 38.5114 11.9701 37.9091C11.2666 37.3068 10.3714 36.9753 9.44531 36.974H5.05664C4.02669 36.9751 3.03926 37.3848 2.31098 38.1131C1.5827 38.8414 1.17304 39.8288 1.17188 40.8587V62.452C1.17304 63.482 1.5827 64.4694 2.31098 65.1977C3.03926 65.926 4.02669 66.3356 5.05664 66.3368H9.43213C10.4513 66.3354 11.4291 65.934 12.1554 65.219C12.8816 64.504 13.2982 63.5325 13.3154 62.5135C16.8105 62.0228 21.2505 64.557 25.5542 67.015C29.2632 69.1332 32.7993 71.1532 35.7539 71.1532C36.3098 71.1577 36.863 71.0772 37.3945 70.9144L69.5508 62.2982C71.0296 61.9007 72.2901 60.9324 73.0554 59.606C73.8206 58.2796 74.0279 56.7037 73.6318 55.2245ZM9.43213 63.993H5.05664C4.64806 63.9926 4.25632 63.8302 3.96741 63.5412C3.67849 63.2523 3.51601 62.8606 3.51562 62.452V40.8587C3.51601 40.4502 3.67849 40.0584 3.96741 39.7695C4.25632 39.4806 4.64806 39.3181 5.05664 39.3177H9.43213C9.84071 39.3181 10.2325 39.4806 10.5214 39.7695C10.8103 40.0584 10.9728 40.4502 10.9731 40.8587V62.452C10.9728 62.8606 10.8103 63.2523 10.5214 63.5412C10.2325 63.8302 9.84071 63.9926 9.43213 63.993ZM68.9443 60.0379L36.7676 68.6571L36.7134 68.6732C34.4531 69.3954 30.5215 67.1512 26.7202 64.9803C22.1895 62.3905 17.5195 59.7274 13.3213 60.1463V42.7279C22.894 39.2943 24.8745 41.0038 26.7979 42.659C27.3486 43.1645 27.9471 43.6154 28.585 44.0052L41.2559 51.3207C41.598 51.5192 41.8977 51.7832 42.1378 52.0975C42.3779 52.4118 42.5537 52.7704 42.6553 53.1527C42.7568 53.535 42.7821 53.9335 42.7296 54.3256C42.6771 54.7176 42.5479 55.0955 42.3494 55.4376C42.1508 55.7797 41.8869 56.0794 41.5725 56.3195C41.2582 56.5596 40.8997 56.7355 40.5174 56.837C40.1351 56.9385 39.7365 56.9638 39.3445 56.9113C38.9524 56.8588 38.5745 56.7296 38.2324 56.5311L27.6533 50.4242C27.3849 50.2784 27.0701 50.2432 26.7761 50.3261C26.4821 50.409 26.2321 50.6034 26.0793 50.8679C25.9266 51.1324 25.8831 51.4461 25.9582 51.7422C26.0333 52.0382 26.2211 52.2933 26.4814 52.453L37.0605 58.5614C37.8712 59.0306 38.7913 59.2777 39.728 59.2777C40.5686 59.2765 41.3973 59.0788 42.148 58.7005C42.2031 58.6968 42.2579 58.6895 42.312 58.6786L67.106 53.4286C69.0557 53.0155 70.8853 54.0511 71.3643 55.8368C71.5981 56.7141 71.4747 57.6484 71.0211 58.435C70.5676 59.2216 69.8208 59.7964 68.9443 60.0336V60.0379ZM9.19775 43.5497C9.19891 43.9365 9.08526 44.3149 8.87118 44.6371C8.6571 44.9592 8.35223 45.2106 7.99519 45.3593C7.63814 45.5081 7.24498 45.5475 6.86549 45.4727C6.48601 45.3978 6.13727 45.212 5.86346 44.9388C5.58965 44.6656 5.40307 44.3173 5.32736 43.938C5.25165 43.5587 5.29021 43.1654 5.43816 42.8081C5.58612 42.4507 5.8368 42.1453 6.15847 41.9304C6.48014 41.7156 6.85832 41.6011 7.24512 41.6014C7.76187 41.6026 8.2572 41.8081 8.62301 42.1731C8.98883 42.5381 9.19543 43.0329 9.19775 43.5497ZM32.3335 30.6752H34.3169C34.7099 32.0879 35.2737 33.4476 35.9956 34.724L34.5938 36.1273C34.2259 36.4903 34.003 36.9749 33.9666 37.4904C33.9302 38.0059 34.0828 38.517 34.396 38.9281C35.6358 40.5731 37.0997 42.0365 38.7451 43.2757C39.1558 43.5897 39.6669 43.743 40.1826 43.7068C40.6983 43.6707 41.183 43.4476 41.5459 43.0795L42.9492 41.6776C44.2254 42.3997 45.5844 42.9644 46.9966 43.3592V45.3426C46.9935 45.8595 47.1789 46.3597 47.5181 46.7496C47.8573 47.1395 48.3271 47.3924 48.8394 47.4608C50.8801 47.7482 52.951 47.7482 54.9917 47.4608C55.5047 47.3926 55.9753 47.1395 56.3148 46.7489C56.6544 46.3584 56.8397 45.8572 56.8359 45.3397V43.3592C58.2485 42.9657 59.6081 42.402 60.8848 41.6805L62.2866 43.0824C62.6495 43.4505 63.1343 43.6736 63.6499 43.7098C64.1656 43.7459 64.6767 43.5926 65.0874 43.2787C66.7324 42.0388 68.1953 40.5743 69.4336 38.9281C69.7469 38.5172 69.8998 38.0062 69.8637 37.4907C69.8276 36.9752 69.6049 36.4905 69.2373 36.1273L67.834 34.724C68.556 33.4481 69.1198 32.089 69.5127 30.6766H71.4976C72.0145 30.6801 72.5149 30.4947 72.9048 30.1555C73.2948 29.8162 73.5476 29.3462 73.6157 28.8338C73.9031 26.7931 73.9031 24.7222 73.6157 22.6815C73.5473 22.1694 73.2944 21.6998 72.9044 21.3608C72.5145 21.0218 72.0142 20.8367 71.4976 20.8402H69.5112C69.1174 19.4274 68.5532 18.0678 67.8311 16.7914L69.2344 15.3895C69.6001 15.0272 69.8218 14.5444 69.8585 14.0309C69.8951 13.5174 69.7441 13.0081 69.4336 12.5975C68.1947 10.9513 66.7306 9.48734 65.0845 8.2484C64.6738 7.93445 64.1627 7.78116 63.647 7.8173C63.1313 7.85344 62.6466 8.07652 62.2837 8.44468L60.8818 9.84801C59.6064 9.12428 58.2478 8.55813 56.8359 8.16197V6.17857C56.8395 5.66172 56.6544 5.16132 56.3155 4.77113C55.9765 4.38094 55.5069 4.12773 54.9946 4.05894C52.9537 3.77462 50.8832 3.77462 48.8423 4.05894C48.3302 4.12803 47.8607 4.38132 47.5218 4.77145C47.1829 5.16158 46.9978 5.66181 47.001 6.17857V8.16197C45.5873 8.55571 44.2267 9.11991 42.9492 9.84215L41.5459 8.43883C41.1827 8.07123 40.698 7.84854 40.1825 7.81241C39.667 7.77628 39.156 7.92919 38.7451 8.24254C37.0985 9.48327 35.6345 10.9493 34.396 12.5975C34.0825 13.0085 33.9297 13.5197 33.9661 14.0352C34.0025 14.5508 34.2257 15.0354 34.5938 15.3983L35.9956 16.8002C35.2734 18.0764 34.7096 19.4361 34.3169 20.849H32.3335C31.8166 20.8455 31.3162 21.0305 30.9261 21.3695C30.5359 21.7084 30.2827 22.178 30.2139 22.6903C29.9265 24.731 29.9265 26.8019 30.2139 28.8426C30.2843 29.3534 30.5383 29.8211 30.9283 30.1583C31.3184 30.4956 31.8179 30.6793 32.3335 30.6752ZM32.5107 23.1869H35.2295C35.496 23.1869 35.7546 23.0961 35.9626 22.9294C36.1706 22.7627 36.3156 22.5301 36.3735 22.2699C36.7729 20.4852 37.4786 18.7832 38.4595 17.2396C38.602 17.0147 38.6638 16.748 38.6345 16.4833C38.6052 16.2186 38.4866 15.9718 38.2983 15.7836L36.3765 13.8602C37.4244 12.4929 38.6478 11.2695 40.0151 10.2215L41.937 12.1449C42.1254 12.3335 42.3725 12.4523 42.6375 12.4816C42.9024 12.5109 43.1695 12.449 43.3945 12.306C44.9381 11.3252 46.6401 10.6194 48.4248 10.2201C48.6837 10.162 48.9153 10.0178 49.0816 9.81108C49.2479 9.60432 49.3391 9.34724 49.3403 9.08189V6.35582C51.0484 6.13316 52.7782 6.13316 54.4863 6.35582V9.08189C54.4863 9.34844 54.5771 9.60705 54.7438 9.81503C54.9105 10.023 55.1431 10.168 55.4033 10.2259C57.1871 10.6229 58.8886 11.3262 60.4321 12.3045C60.6572 12.4475 60.9242 12.5094 61.1892 12.4801C61.4542 12.4508 61.7013 12.3321 61.8896 12.1434L63.813 10.2201C65.1795 11.2685 66.4024 12.4918 67.4502 13.8587L65.5283 15.7821C65.34 15.9704 65.2215 16.2172 65.1922 16.4818C65.1629 16.7465 65.2246 17.0132 65.3672 17.2381C66.3481 18.7806 67.0539 20.4816 67.4531 22.2655C67.5114 22.5254 67.6565 22.7577 67.8644 22.9241C68.0724 23.0905 68.3308 23.1811 68.5972 23.181H71.3159C71.5405 24.889 71.5405 26.619 71.3159 28.327H68.5957C68.3296 28.3272 68.0715 28.418 67.8638 28.5844C67.6562 28.7508 67.5113 28.9829 67.4531 29.2425C67.0543 31.0288 66.3485 32.7323 65.3672 34.2772C65.2246 34.5021 65.1629 34.7689 65.1922 35.0335C65.2215 35.2982 65.34 35.545 65.5283 35.7333L67.4517 37.6566C66.4029 39.0232 65.1796 40.2465 63.813 41.2953L61.8896 39.3734C61.7012 39.1853 61.4543 39.0671 61.1896 39.038C60.925 39.009 60.6583 39.071 60.4336 39.2137C58.8897 40.1949 57.1871 40.9007 55.4019 41.2997C55.1422 41.3579 54.9101 41.5027 54.7437 41.7104C54.5773 41.918 54.4865 42.1761 54.4863 42.4422V45.1625C52.7782 45.3851 51.0484 45.3851 49.3403 45.1625V42.4422C49.3405 42.1759 49.2498 41.9174 49.0834 41.7095C48.917 41.5015 48.6847 41.3565 48.4248 41.2982C46.6396 40.9005 44.9373 40.1946 43.3945 39.2123C43.1695 39.0693 42.9024 39.0074 42.6375 39.0367C42.3725 39.066 42.1254 39.1848 41.937 39.3734L40.0151 41.2967C38.6478 40.2488 37.4244 39.0254 36.3765 37.6581L38.2983 35.742C38.4866 35.5538 38.6052 35.307 38.6345 35.0423C38.6638 34.7776 38.602 34.5109 38.4595 34.286C37.4783 32.7426 36.7725 31.0405 36.3735 29.2557C36.3156 28.9955 36.1706 28.7629 35.9626 28.5962C35.7546 28.4295 35.496 28.3387 35.2295 28.3387H32.5107C32.2861 26.6312 32.2861 24.9017 32.5107 23.1942V23.1869ZM51.9141 37.4999C54.235 37.4999 56.5038 36.8116 58.4336 35.5222C60.3634 34.2327 61.8675 32.4 62.7557 30.2557C63.6438 28.1115 63.8762 25.752 63.4234 23.4756C62.9707 21.1993 61.853 19.1083 60.2119 17.4672C58.5707 15.826 56.4798 14.7084 54.2034 14.2556C51.9271 13.8028 49.5676 14.0352 47.4233 14.9234C45.2791 15.8116 43.4463 17.3157 42.1569 19.2455C40.8674 21.1752 40.1792 23.4441 40.1792 25.765C40.1827 28.8762 41.4202 31.859 43.6201 34.0589C45.8201 36.2589 48.8029 37.4964 51.9141 37.4999ZM51.9141 16.3739C53.7714 16.3739 55.5871 16.9247 57.1315 17.9566C58.6758 18.9885 59.8795 20.4552 60.5903 22.1712C61.3011 23.8872 61.4871 25.7754 61.1247 27.5971C60.7624 29.4188 59.868 31.0921 58.5546 32.4055C57.2412 33.7189 55.5679 34.6133 53.7462 34.9757C51.9245 35.338 50.0362 35.152 48.3202 34.4413C46.6042 33.7305 45.1375 32.5268 44.1056 30.9824C43.0737 29.4381 42.523 27.6224 42.523 25.765C42.5241 23.2741 43.5137 20.8855 45.2745 19.1237C47.0352 17.3618 49.4232 16.3707 51.9141 16.368V16.3739ZM47.0405 26.8739C46.9317 26.765 46.8455 26.6358 46.7866 26.4935C46.7278 26.3513 46.6976 26.1989 46.6976 26.045C46.6977 25.8911 46.7281 25.7387 46.787 25.5965C46.846 25.4544 46.9324 25.3252 47.0413 25.2164C47.1501 25.1076 47.2794 25.0214 47.4216 24.9625C47.5638 24.9037 47.7162 24.8734 47.8701 24.8735C48.0241 24.8736 48.1764 24.904 48.3186 24.9629C48.4608 25.0219 48.5899 25.1083 48.6987 25.2171L50.5811 27.0995L55.0781 21.9388C55.2889 21.7308 55.5707 21.6102 55.8667 21.6015C56.1628 21.5927 56.4512 21.6964 56.6739 21.8916C56.8966 22.0869 57.0371 22.3592 57.0672 22.6539C57.0972 22.9485 57.0146 23.2436 56.8359 23.4798L51.5186 29.5794C51.413 29.7006 51.2836 29.7988 51.1384 29.8679C50.9933 29.9369 50.8355 29.9754 50.6748 29.9808H50.6353C50.4813 29.9809 50.3289 29.9507 50.1866 29.8919C50.0443 29.8331 49.9151 29.7468 49.8062 29.638L47.0405 26.8739Z" fill="white"/>
</svg>
