<svg width="75" height="75" viewBox="0 0 75 75" fill="none" xmlns="http://www.w3.org/2000/svg">
<g clip-path="url(#clip0_1160_7523)">
<path d="M71.1914 37.5987H74.9411V35.4032H67.7301L62.1065 31.8355H74.9411V29.64H58.6452L53.4542 26.3463H74.9411V24.1514H48.8823L23.877 40.014V72.7064L0.00114441 72.6966L0 74.8922L74.9205 74.9231L75 40.0146L71.1914 37.5987ZM62.5116 54.8885V68.0618H60.926V63.6707H58.7305V59.2796H43.911V63.6707H40.6174V68.0618H38.4224V72.7126L36.252 72.7115V54.8885H62.5116ZM51.5951 61.4751H56.535V63.6707H51.5951V61.4751ZM57.0843 68.0618H53.7907V65.8662H58.7305V68.0618H57.0843ZM48.3021 65.8662H51.5951V68.0618H48.3021V65.8662ZM51.5951 70.2573H54.8887V72.4529H51.5951V70.2573ZM49.3996 63.6707H46.1065V61.4751H49.3996V63.6707ZM46.1065 68.0618H42.8129V65.8662H46.1065V68.0618ZM43.911 70.2573V72.4529H40.6174V70.2573H43.911ZM46.1065 70.2573H49.3996V72.7172L46.1065 72.7155V70.2573ZM57.0843 70.2573H62.5116V72.7224L57.0843 72.7201V70.2573ZM64.7072 72.7235V54.8885H66.964V52.6929H31.8357V54.8885H34.0565V72.7109L26.0725 72.7075V70.2573H31.8357V68.0618H26.0725V41.2214L49.4379 26.399L66.964 37.5169V37.5987H67.0927L72.8016 41.2202L72.7404 68.0618H66.964V70.2573H72.7352L72.7295 72.7264L64.7072 72.7235Z" fill="white"/>
<path d="M32.9336 49.3994H65.8663V40.6172H32.9336V49.3994ZM53.791 47.2038H50.498V42.8127H53.791V47.2038ZM55.9866 42.8127H59.2802V47.2038H55.9866V42.8127ZM48.3024 47.2038H45.0088V42.8127H48.3024V47.2038ZM42.8133 47.2038H39.5202V42.8127H42.8133V47.2038ZM63.6713 47.2038H61.4757V42.8127H63.6713V47.2038ZM35.1291 42.8127H37.3247V47.2038H35.1291V42.8127Z" fill="white"/>
<path d="M28.542 43.9102H30.7375V46.1057H28.542V43.9102Z" fill="white"/>
<path d="M68.0615 43.9102H70.2571V46.1057H68.0615V43.9102Z" fill="white"/>
<path d="M49.3999 38.4218C51.8215 38.4218 53.791 36.4517 53.791 34.0307C53.791 31.6092 51.8215 29.6396 49.3999 29.6396C46.9789 29.6396 45.0088 31.6092 45.0088 34.0307C45.0088 36.4517 46.9789 38.4218 49.3999 38.4218ZM49.3999 31.8352C50.6107 31.8352 51.5954 32.82 51.5954 34.0307C51.5954 35.2415 50.6107 36.2263 49.3999 36.2263C48.1897 36.2263 47.2043 35.2415 47.2043 34.0307C47.2043 32.82 48.1897 31.8352 49.3999 31.8352Z" fill="white"/>
<path d="M24.4629 14.2428L27.8211 16.4818L33.9048 10.9778H36.5009V8.78223H33.0591L27.6163 13.7066L24.3885 11.5546L19.376 15.3139L20.6932 17.07L24.4629 14.2428Z" fill="white"/>
<path d="M38.6963 8.78223H40.8918V10.9778H38.6963V8.78223Z" fill="white"/>
<path d="M22.2299 23.053H45.2829V4.3911H22.2299V0H0.274414V37.3238H22.2299V23.053ZM43.0873 20.8574H17.8388V6.58665H43.0873V20.8574ZM20.0344 2.19555V4.3911H15.6433V10.9777H9.05661V13.1733H15.6433V15.3688H9.05661V17.5644H15.6433V19.7599H9.05661V21.9555H15.6433V23.053H20.0344V29.6396H2.46996V6.58665H7.95912V4.3911H2.46996V2.19555H20.0344ZM2.46996 35.1282V31.8352H20.0344V35.1282H2.46996Z" fill="white"/>
<path d="M19.7598 52.6924H21.9553V54.8879H19.7598V52.6924Z" fill="white"/>
<path d="M15.3691 52.6924H17.5647V54.8879H15.3691V52.6924Z" fill="white"/>
<path d="M10.9785 52.6924H13.1741V54.8879H10.9785V52.6924Z" fill="white"/>
<path d="M13.174 43.9102H10.9785V46.2499C10.9785 46.7758 10.5505 47.2038 10.0246 47.2038H6.03807C3.91977 47.2038 2.19629 48.9272 2.19629 51.0455C2.19629 53.1644 3.91977 54.8879 6.03807 54.8879H8.78294V52.6924H6.03807C5.13055 52.6924 4.39184 51.9536 4.39184 51.0455C4.39184 50.138 5.13055 49.3993 6.03807 49.3993H10.0246C11.7613 49.3993 13.174 47.9865 13.174 46.2499V43.9102Z" fill="white"/>
<path d="M10.9785 39.5195H13.1741V41.7151H10.9785V39.5195Z" fill="white"/>
<path d="M10.1553 4.39062H12.3508V6.58617H10.1553V4.39062Z" fill="white"/>
<path d="M4.66602 10.9775H6.86156V13.1731H4.66602V10.9775Z" fill="white"/>
<path d="M4.66602 15.3691H6.86156V17.5647H4.66602V15.3691Z" fill="white"/>
<path d="M4.66602 19.7598H6.86156V21.9553H4.66602V19.7598Z" fill="white"/>
<path d="M4.66602 24.1514H6.86156V26.3463H4.66602V24.1514Z" fill="white"/>
<path d="M9.05664 24.1514H17.8388V26.3463H9.05664V24.1514Z" fill="white"/>
<path d="M33.208 16.4668H40.8921V18.6623H33.208V16.4668Z" fill="white"/>
</g>
<defs>
<clipPath id="clip0_1160_7523">
<rect width="75" height="75" fill="white"/>
</clipPath>
</defs>
</svg>
