<svg width="20" height="20" viewBox="0 0 20 20" fill="none" xmlns="http://www.w3.org/2000/svg">
<g clip-path="url(#clip0_1148_3079)">
<path d="M17.0282 2.90436C15.1494 1.03256 12.65 0.00106812 9.98993 0C7.33582 0 4.83246 1.03058 2.94128 2.90192C1.04675 4.77646 0.00244141 7.26761 0 9.90738V9.91043V9.91226C0.000305176 11.51 0.420074 13.1218 1.21689 14.593L0.0273132 20L5.49652 18.756C6.88171 19.454 8.42728 19.8221 9.98611 19.8227H9.99008C12.6437 19.8227 15.1471 18.792 17.0386 16.9205C18.9348 15.0444 19.9796 12.5565 19.9808 9.91501C19.9815 7.29218 18.9331 4.8024 17.0282 2.90436ZM9.98993 18.2617H9.98642C8.58673 18.2611 7.19986 17.9097 5.97595 17.2452L5.71732 17.1048L2.08054 17.932L2.87048 14.3419L2.7182 14.0793C1.96106 12.7736 1.56097 11.3322 1.56097 9.91058C1.56387 5.30899 5.3447 1.56097 9.98962 1.56097C12.2336 1.56189 14.342 2.43179 15.9265 4.01016C17.5349 5.61295 18.4204 7.70981 18.4196 9.91455C18.4178 14.5172 14.6362 18.2617 9.98993 18.2617Z" fill="white"/>
<path d="M7.27139 5.54199H6.83347C6.68103 5.54199 6.43353 5.59906 6.22418 5.82687C6.01468 6.05484 5.42432 6.60583 5.42432 7.72644C5.42432 8.84705 6.24326 9.92981 6.35739 10.0819C6.47168 10.2339 7.9382 12.607 10.2609 13.5199C12.1913 14.2786 12.5842 14.1277 13.0031 14.0897C13.4221 14.0518 14.3551 13.5388 14.5456 13.007C14.736 12.4753 14.736 12.0193 14.6789 11.9241C14.6217 11.8292 14.4693 11.7723 14.2408 11.6585C14.0123 11.5445 12.8923 10.9842 12.6828 10.9081C12.4733 10.8322 12.321 10.7942 12.1685 11.0223C12.0161 11.25 11.5674 11.7767 11.434 11.9287C11.3008 12.0808 11.1674 12.0999 10.9388 11.9859C10.7103 11.8716 9.98181 11.6269 9.10886 10.8511C8.42938 10.2473 7.95789 9.47739 7.82452 9.24942C7.69131 9.02161 7.81033 8.89832 7.92493 8.78464C8.02762 8.68271 8.16632 8.54324 8.28061 8.41034C8.39474 8.27728 8.42725 8.18237 8.50354 8.0304C8.57968 7.87842 8.54153 7.74536 8.48447 7.63153C8.42725 7.51755 7.98871 6.3913 7.78546 5.94086H7.78561C7.61441 5.56152 7.4342 5.54871 7.27139 5.54199Z" fill="white"/>
</g>
<defs>
<clipPath id="clip0_1148_3079">
<rect width="20" height="20" fill="white"/>
</clipPath>
</defs>
</svg>
